<?xml version="1.0" encoding="utf-8"?>
<!-- Generator: Adobe Illustrator 15.0.0, SVG Export Plug-In  -->
<!DOCTYPE svg PUBLIC "-//W3C//DTD SVG 1.1//EN" "http://www.w3.org/Graphics/SVG/1.1/DTD/svg11.dtd" [
	<!ENTITY ns_flows "http://ns.adobe.com/Flows/1.0/">
]>
<svg version="1.1"
	 xmlns="http://www.w3.org/2000/svg" xmlns:xlink="http://www.w3.org/1999/xlink" xmlns:a="http://ns.adobe.com/AdobeSVGViewerExtensions/3.0/"
	 x="0px" y="0px" width="100px" height="100px" viewBox="0 0 100 100" enable-background="new 0 0 100 100" xml:space="preserve">
<defs>
</defs>
<path fill="#636363" d="M85.827,0H14.174C6.346,0,0,6.346,0,14.174v17.183v54.471C0,93.654,6.346,100,14.174,100h71.652
	C93.655,100,100,93.654,100,85.827V31.356V14.174C100,6.346,93.655,0,85.827,0z M95.762,82.791c0,7.164-5.807,12.972-12.971,12.972
	H17.209c-7.164,0-12.972-5.808-12.972-12.972V26.356h91.525V82.791z"/>
<path fill="#636363" d="M72.891,71.92c-0.212-0.939-0.918-1.688-1.843-1.953l-6.932-1.98c0.128-0.811,0.214-1.643,0.262-2.487
	l6.67-1.906c0.925-0.265,1.631-1.013,1.843-1.952l3.288-14.711c0.316-1.417-0.572-2.821-1.99-3.137
	c-1.413-0.316-2.817,0.575-3.135,1.99l-2.952,13.188L64.12,60.11c-0.278-1.768-0.735-3.447-1.353-5H37.234
	c-0.613,1.552-1.074,3.231-1.353,5l-3.982-1.139L28.95,45.784c-0.316-1.416-1.721-2.306-3.138-1.99
	c-1.417,0.316-2.307,1.721-1.99,3.137l3.292,14.711c0.208,0.939,0.914,1.688,1.839,1.952l6.67,1.905
	c0.048,0.845,0.134,1.677,0.262,2.488l-6.932,1.98c-0.925,0.265-1.631,1.014-1.839,1.953l-3.292,14.711
	c-0.316,1.417,0.573,2.82,1.99,3.137c0.191,0.043,0.387,0.064,0.575,0.064c1.203,0,2.287-0.832,2.563-2.054l2.949-13.188
	l5.374-1.535C39.701,79.09,44.489,83.198,50,83.198s10.3-4.108,12.728-10.143l5.374,1.535l2.952,13.188
	c0.272,1.222,1.356,2.054,2.56,2.054c0.191,0,0.384-0.021,0.575-0.064c1.418-0.317,2.307-1.721,1.99-3.137L72.891,71.92z"/>
<path fill="#636363" d="M35.53,35.451c0.31,0.011,6.662,0.322,10.172,8.086c-2.252,1.254-4.123,3.461-5.339,6.242
	c-0.479,0.574-0.928,1.194-1.347,1.848h21.969c-0.419-0.654-0.867-1.274-1.347-1.848c-1.212-2.781-3.087-4.988-5.335-6.242
	c3.499-7.748,9.833-8.075,10.168-8.086c1.002-0.024,1.802-0.855,1.782-1.861c-0.02-1.008-0.854-1.82-1.861-1.792
	c-0.125,0.002-3.091,0.08-6.42,2.073c-2.31,1.382-5.176,3.932-7.169,8.558C50.538,42.404,50.269,42.39,50,42.39
	s-0.537,0.014-0.8,0.039c-1.993-4.626-4.858-7.176-7.168-8.558c-3.333-1.994-6.299-2.071-6.42-2.073
	c-1.015-0.011-1.85,0.783-1.868,1.792C33.725,34.599,34.522,35.432,35.53,35.451z"/>
</svg>
