<?xml version="1.0" encoding="utf-8"?>
<!-- Generator: Adobe Illustrator 15.0.0, SVG Export Plug-In  -->
<!DOCTYPE svg PUBLIC "-//W3C//DTD SVG 1.1//EN" "http://www.w3.org/Graphics/SVG/1.1/DTD/svg11.dtd" [
	<!ENTITY ns_flows "http://ns.adobe.com/Flows/1.0/">
]>
<svg version="1.1"
	 xmlns="http://www.w3.org/2000/svg" xmlns:xlink="http://www.w3.org/1999/xlink" xmlns:a="http://ns.adobe.com/AdobeSVGViewerExtensions/3.0/"
	 x="0px" y="0px" width="425px" height="425px" viewBox="-3.128 -3.128 425 425" enable-background="new -3.128 -3.128 425 425"
	 xml:space="preserve">
<defs>
</defs>
<path fill="#425AA1" d="M144.066,72.033C144.066,32.314,111.752,0,72.033,0C32.314,0,0,32.314,0,72.033
	c0,37.055,28.127,67.654,64.15,71.594v131.746C28.127,279.313,0,309.912,0,346.966c0,39.719,32.314,72.032,72.033,72.032
	c39.719,0,72.033-32.313,72.033-72.032c0-37.055-28.127-67.653-64.151-71.594V143.627
	C115.938,139.687,144.066,109.088,144.066,72.033z M15.765,72.033c0-31.026,25.242-56.269,56.268-56.269
	c31.027,0,56.269,25.242,56.269,56.269c0,31.027-25.242,56.269-56.269,56.269C41.006,128.302,15.765,103.06,15.765,72.033z
	 M128.301,346.966c0,31.026-25.242,56.268-56.269,56.268c-31.026,0-56.268-25.241-56.268-56.268s25.242-56.269,56.268-56.269
	C103.06,290.698,128.301,315.94,128.301,346.966z M354.848,275.373v-84.441c-0.043-31.52-12.335-61.16-34.613-83.46l-73.377-73.377
	h72.615c4.353,0,7.882-3.529,7.882-7.882c0-4.354-3.529-7.882-7.882-7.882h-91.645c-0.033,0-0.064,0.004-0.098,0.004
	c-0.226,0.003-0.452,0.012-0.677,0.034c-0.129,0.013-0.254,0.037-0.381,0.055c-0.128,0.019-0.256,0.033-0.382,0.059
	c-0.141,0.027-0.276,0.065-0.413,0.101c-0.112,0.028-0.225,0.053-0.335,0.086c-0.134,0.041-0.264,0.09-0.395,0.138
	c-0.112,0.04-0.224,0.077-0.334,0.122c-0.121,0.051-0.238,0.109-0.357,0.166c-0.114,0.054-0.229,0.105-0.342,0.165
	c-0.113,0.061-0.221,0.129-0.329,0.195c-0.112,0.067-0.225,0.129-0.333,0.202c-0.12,0.08-0.231,0.167-0.345,0.253
	c-0.093,0.069-0.187,0.133-0.276,0.207c-0.185,0.151-0.36,0.312-0.53,0.479c-0.016,0.016-0.032,0.028-0.048,0.043
	c-0.021,0.02-0.036,0.042-0.057,0.063c-0.162,0.165-0.317,0.334-0.464,0.512c-0.081,0.099-0.152,0.204-0.229,0.306
	c-0.077,0.104-0.158,0.206-0.23,0.313c-0.08,0.12-0.149,0.243-0.222,0.365c-0.059,0.099-0.12,0.195-0.175,0.296
	c-0.066,0.124-0.122,0.252-0.182,0.378c-0.05,0.106-0.104,0.211-0.149,0.321c-0.051,0.123-0.092,0.248-0.137,0.373
	c-0.042,0.118-0.087,0.234-0.124,0.355c-0.037,0.125-0.066,0.253-0.098,0.381c-0.03,0.122-0.064,0.243-0.09,0.367
	c-0.03,0.148-0.047,0.299-0.068,0.448c-0.015,0.105-0.034,0.208-0.045,0.314c-0.026,0.261-0.04,0.523-0.04,0.786v91.639
	c0,4.354,3.529,7.882,7.883,7.882c4.353,0,7.882-3.529,7.882-7.882V45.241l73.374,73.374c19.308,19.327,29.962,45.017,29.999,72.326
	v84.431c-36.023,3.94-64.15,34.539-64.15,71.594c0,39.719,32.313,72.032,72.032,72.032c39.72,0,72.034-32.313,72.034-72.032
	C418.999,309.912,390.871,279.313,354.848,275.373z M346.965,403.234c-31.025,0-56.268-25.241-56.268-56.268
	s25.242-56.269,56.268-56.269c31.027,0,56.27,25.242,56.27,56.269S377.992,403.234,346.965,403.234z"/>
<path fill="#EE7C1C" d="M15.89,72.033c0-31.026,25.242-56.269,56.269-56.269c31.026,0,56.268,25.242,56.268,56.269
	c0,31.027-25.242,56.269-56.268,56.269C41.131,128.302,15.89,103.06,15.89,72.033z"/>
<path fill="#FFFFFF" d="M72.158,130.765c-32.385,0-58.732-26.347-58.732-58.732c0-32.385,26.347-58.732,58.732-58.732
	c32.384,0,58.731,26.347,58.731,58.732C130.89,104.418,104.542,130.765,72.158,130.765z M72.158,18.228
	c-29.668,0-53.805,24.137-53.805,53.805c0,29.668,24.137,53.806,53.805,53.806c29.668,0,53.805-24.137,53.805-53.806
	C125.963,42.365,101.826,18.228,72.158,18.228z"/>
<path fill="#EE7C1C" d="M347.09,403.234c-31.025,0-56.268-25.241-56.268-56.268s25.242-56.269,56.268-56.269
	c31.027,0,56.27,25.242,56.27,56.269S378.117,403.234,347.09,403.234z"/>
<path fill="#FFFFFF" d="M347.09,405.697c-32.384,0-58.731-26.347-58.731-58.73c0-32.386,26.348-58.732,58.731-58.732
	c32.386,0,58.732,26.347,58.732,58.732C405.822,379.35,379.476,405.697,347.09,405.697z M347.09,293.161
	c-29.668,0-53.805,24.138-53.805,53.806s24.137,53.805,53.805,53.805c29.669,0,53.807-24.137,53.807-53.805
	S376.759,293.161,347.09,293.161z"/>
</svg>
