<?xml version="1.0" encoding="utf-8"?>
<!-- Generator: Adobe Illustrator 15.0.0, SVG Export Plug-In  -->
<!DOCTYPE svg PUBLIC "-//W3C//DTD SVG 1.1//EN" "http://www.w3.org/Graphics/SVG/1.1/DTD/svg11.dtd" [
	<!ENTITY ns_flows "http://ns.adobe.com/Flows/1.0/">
]>
<svg version="1.1"
	 xmlns="http://www.w3.org/2000/svg" xmlns:xlink="http://www.w3.org/1999/xlink" xmlns:a="http://ns.adobe.com/AdobeSVGViewerExtensions/3.0/"
	 x="0px" y="0px" width="100px" height="100px" viewBox="0 0 100 100" enable-background="new 0 0 100 100" xml:space="preserve">
<defs>
</defs>
<path fill="#636363" d="M85.827,0H14.174C6.346,0,0,6.346,0,14.174v17.183v54.471C0,93.654,6.346,100,14.174,100h71.652
	C93.655,100,100,93.654,100,85.827V31.356V14.174C100,6.346,93.655,0,85.827,0z M95.762,82.791c0,7.164-5.807,12.972-12.971,12.972
	H17.209c-7.164,0-12.972-5.808-12.972-12.972V26.356h91.525V82.791z"/>
<path fill="#636363" d="M47.116,40.478l-0.932,4.208l14.756-4.661L49.526,29.576l-1.002,4.529
	c-6.072,0.345-12.045,2.826-16.674,7.456C23.356,50.055,22.075,63.07,28,72.932l4.57-4.571c-3.604-7.277-2.385-16.357,3.668-22.411
	C39.299,42.89,43.131,41.068,47.116,40.478z"/>
<path fill="#636363" d="M71.999,46.49l-4.57,4.572c3.604,7.277,2.385,16.357-3.668,22.41c-3.059,3.06-6.893,4.882-10.875,5.474
	l0.93-4.209l-14.756,4.662l11.414,10.448l1-4.523c6.074-0.346,12.045-2.832,16.676-7.461C76.645,69.367,77.924,56.353,71.999,46.49z
	"/>
</svg>
