<?xml version="1.0" encoding="utf-8"?>
<!-- Generator: Adobe Illustrator 15.0.0, SVG Export Plug-In  -->
<!DOCTYPE svg PUBLIC "-//W3C//DTD SVG 1.1//EN" "http://www.w3.org/Graphics/SVG/1.1/DTD/svg11.dtd" [
	<!ENTITY ns_flows "http://ns.adobe.com/Flows/1.0/">
]>
<svg version="1.1"
	 xmlns="http://www.w3.org/2000/svg" xmlns:xlink="http://www.w3.org/1999/xlink" xmlns:a="http://ns.adobe.com/AdobeSVGViewerExtensions/3.0/"
	 x="0px" y="0px" width="267px" height="44px" viewBox="0 0 267 44" enable-background="new 0 0 267 44" xml:space="preserve">
<defs>
</defs>
<path fill="#FFFFFF" d="M6.006,1.758v32.91H0V1.758H6.006z M9.938,17.969c0-2.734-0.098-5.029-0.195-7.08h5.225l0.293,3.564h0.146
	c1.074-1.855,3.662-4.102,7.617-4.102c4.15,0,8.447,2.686,8.447,10.205v14.111h-6.006V21.24c0-3.418-1.27-6.006-4.541-6.006
	c-2.393,0-4.053,1.709-4.688,3.516c-0.195,0.488-0.293,1.221-0.293,1.904v14.014H9.938V17.969z M35.623,29.102
	c1.318,0.83,3.906,1.758,6.055,1.758c2.637,0,3.809-1.123,3.809-2.686c0-1.611-0.977-2.393-3.906-3.467
	c-4.639-1.563-6.543-4.102-6.543-6.934c0-4.199,3.467-7.422,8.984-7.422c2.637,0,4.932,0.635,6.348,1.416l-1.221,4.199
	c-0.977-0.586-2.93-1.367-5.029-1.367c-2.148,0-3.32,1.074-3.32,2.539c0,1.514,1.123,2.197,4.15,3.32
	c4.346,1.514,6.299,3.711,6.348,7.227c0,4.346-3.369,7.471-9.668,7.471c-2.881,0-5.469-0.684-7.227-1.66L35.623,29.102z
	 M54.227,18.799c0-3.125-0.098-5.664-0.195-7.91h5.273l0.293,3.662h0.098c1.758-2.686,4.541-4.199,8.154-4.199
	c5.469,0,10.01,4.688,10.01,12.109c0,8.594-5.42,12.744-10.84,12.744c-2.979,0-5.469-1.27-6.689-3.174h-0.098v12.305h-6.006V18.799z
	 M60.233,24.707c0,0.586,0.049,1.123,0.146,1.66c0.635,2.441,2.734,4.199,5.322,4.199c3.809,0,6.055-3.174,6.055-7.861
	c0-4.199-2.051-7.617-5.908-7.617c-2.49,0-4.785,1.807-5.42,4.443c-0.098,0.488-0.195,1.025-0.195,1.514V24.707z M86.038,24.463
	c0.146,4.297,3.467,6.152,7.324,6.152c2.783,0,4.736-0.439,6.592-1.074l0.879,4.102c-2.051,0.879-4.883,1.514-8.301,1.514
	c-7.715,0-12.256-4.736-12.256-12.012c0-6.592,4.004-12.793,11.621-12.793c7.715,0,10.254,6.348,10.254,11.572
	c0,1.123-0.098,2.002-0.195,2.539H86.038z M96.487,20.264c0.049-2.197-0.928-5.811-4.932-5.811c-3.711,0-5.273,3.369-5.518,5.811
	H96.487z M111.99,21.338h0.098c0.586-0.928,1.27-1.953,1.855-2.783l5.811-7.666h7.227l-8.838,9.717l10.059,14.063h-7.373
	l-6.836-10.498l-2.002,2.393v8.105h-6.006V0h6.006V21.338z M137.721,4.785v6.104h5.713v4.492h-5.713v10.498
	c0,2.93,0.781,4.395,3.076,4.395c1.074,0,1.66-0.049,2.344-0.244l0.098,4.541c-0.879,0.342-2.49,0.635-4.346,0.635
	c-2.246,0-4.053-0.732-5.176-1.953c-1.318-1.367-1.904-3.564-1.904-6.689V15.381h-3.369v-4.492h3.369V6.445L137.721,4.785z
	 M153.371,4.248c0,1.758-1.318,3.223-3.418,3.223c-2.002,0-3.32-1.465-3.32-3.223c0-1.855,1.367-3.271,3.369-3.271
	C152.052,0.977,153.322,2.393,153.371,4.248z M146.974,34.668V10.889h6.006v23.779H146.974z M180.081,22.559
	c0,8.74-6.152,12.646-12.207,12.646c-6.689,0-11.914-4.59-11.914-12.256c0-7.813,5.127-12.598,12.305-12.598
	C175.345,10.352,180.081,15.332,180.081,22.559z M162.161,22.803c0,4.59,2.295,8.057,5.908,8.057c3.418,0,5.811-3.32,5.811-8.154
	c0-3.711-1.66-8.008-5.762-8.008C163.87,14.697,162.161,18.848,162.161,22.803z M183.012,17.969c0-2.734-0.098-5.029-0.195-7.08
	h5.225l0.293,3.564h0.146c1.074-1.855,3.662-4.102,7.617-4.102c4.15,0,8.447,2.686,8.447,10.205v14.111h-6.006V21.24
	c0-3.418-1.27-6.006-4.541-6.006c-2.393,0-4.053,1.709-4.688,3.516c-0.195,0.488-0.293,1.221-0.293,1.904v14.014h-6.006V17.969z
	 M227.156,34.668v-8.057h-14.404v-3.906L225.74,2.93h7.08V22.07h4.102v4.541h-4.102v8.057H227.156z M227.156,22.07v-8.643
	c0-1.807,0.098-3.613,0.195-5.518h-0.195c-0.977,2.002-1.807,3.613-2.783,5.371l-5.859,8.691v0.098H227.156z M236.484,31.348
	c0-2.246,1.563-3.857,3.711-3.857c2.197,0,3.711,1.563,3.711,3.857c0,2.197-1.465,3.857-3.76,3.857
	C237.998,35.205,236.484,33.545,236.484,31.348z M267.029,18.555c0,10.254-4.004,16.65-11.621,16.65
	c-7.275,0-11.182-6.641-11.23-16.309c0-9.912,4.199-16.504,11.621-16.504C263.464,2.393,267.029,9.229,267.029,18.555z
	 M250.232,18.848c0,7.764,2.1,11.768,5.371,11.768c3.564,0,5.371-4.297,5.371-11.914c0-7.373-1.709-11.719-5.322-11.719
	C252.478,6.982,250.232,10.938,250.232,18.848z"/>
</svg>
