<?xml version="1.0" encoding="utf-8"?>
<!-- Generator: Adobe Illustrator 15.0.0, SVG Export Plug-In  -->
<!DOCTYPE svg PUBLIC "-//W3C//DTD SVG 1.1//EN" "http://www.w3.org/Graphics/SVG/1.1/DTD/svg11.dtd" [
	<!ENTITY ns_flows "http://ns.adobe.com/Flows/1.0/">
]>
<svg version="1.1"
	 xmlns="http://www.w3.org/2000/svg" xmlns:xlink="http://www.w3.org/1999/xlink" xmlns:a="http://ns.adobe.com/AdobeSVGViewerExtensions/3.0/"
	 x="0px" y="0px" width="172px" height="172px" viewBox="0 0 172 172" enable-background="new 0 0 172 172" xml:space="preserve">
<defs>
</defs>
<path fill="#FFFFFF" d="M59.283,70.851c0-6.271-5.084-11.354-11.355-11.354c-6.27,0-11.354,5.083-11.354,11.354l0,0v57.508h22.709
	V70.851L59.283,70.851z"/>
<path fill="#FFFFFF" d="M61.233,83.805c0,0.892-0.731,1.621-1.624,1.621H36.246c-0.893,0-1.621-0.729-1.621-1.621V77.32
	c0-0.892,0.729-1.621,1.621-1.621h23.363c0.893,0,1.624,0.729,1.624,1.621V83.805z"/>
<path fill="#FFFFFF" d="M61.233,98.11c0,0.892-0.731,1.623-1.624,1.623H36.246c-0.893,0-1.621-0.731-1.621-1.623v-6.484
	c0-0.892,0.729-1.621,1.621-1.621h23.363c0.893,0,1.624,0.729,1.624,1.621V98.11z"/>
<path fill="#FFFFFF" d="M61.233,112.416c0,0.892-0.731,1.623-1.624,1.623H36.246c-0.893,0-1.621-0.731-1.621-1.623v-6.484
	c0-0.893,0.729-1.622,1.621-1.622h23.363c0.893,0,1.624,0.729,1.624,1.622V112.416z"/>
<rect x="69.934" y="31.642" fill="#FFFFFF" width="10.014" height="91.896"/>
<rect x="68.789" y="43.157" fill="#FFFFFF" width="12.304" height="7.726"/>
<rect x="68.789" y="57.461" fill="#FFFFFF" width="12.304" height="7.726"/>
<rect x="68.789" y="71.767" fill="#FFFFFF" width="12.304" height="7.726"/>
<path fill="#FFFFFF" d="M90.921,128.359h46.454c0,0-11.81-31.531-7.682-58.491H89.001c4.128,26.96-7.681,58.491-7.681,58.491h52.215
	"/>
<path fill="#FFFFFF" d="M86,172C38.579,172,0,133.42,0,86C0,38.58,38.579,0,86,0c47.42,0,86,38.58,86,86
	C172,133.42,133.42,172,86,172z M86,8C42.99,8,8,42.991,8,86c0,43.01,34.99,78,78,78c43.009,0,78-34.99,78-78
	C164,42.991,129.009,8,86,8z"/>
</svg>
