<?xml version="1.0" encoding="utf-8"?>
<!-- Generator: Adobe Illustrator 15.0.0, SVG Export Plug-In  -->
<!DOCTYPE svg PUBLIC "-//W3C//DTD SVG 1.1//EN" "http://www.w3.org/Graphics/SVG/1.1/DTD/svg11.dtd" [
	<!ENTITY ns_flows "http://ns.adobe.com/Flows/1.0/">
]>
<svg version="1.1"
	 xmlns="http://www.w3.org/2000/svg" xmlns:xlink="http://www.w3.org/1999/xlink" xmlns:a="http://ns.adobe.com/AdobeSVGViewerExtensions/3.0/"
	 x="0px" y="0px" width="172px" height="172px" viewBox="0 0 172 172" enable-background="new 0 0 172 172" xml:space="preserve">
<defs>
</defs>
<path fill="#FFFFFF" d="M86,172C38.578,172,0,133.42,0,86C0,38.58,38.578,0,86,0c47.42,0,86,38.58,86,86
	C172,133.42,133.42,172,86,172z M86,8C42.99,8,8,42.991,8,86c0,43.01,34.99,78,78,78c43.008,0,78-34.99,78-78
	C164,42.991,129.008,8,86,8z"/>
<path display="none" fill="#FFFFFF" d="M59.283,70.851c0-6.271-5.084-11.354-11.355-11.354c-6.27,0-11.354,5.083-11.354,11.354l0,0
	v57.508h22.709V70.851L59.283,70.851z"/>
<path display="none" fill="#FFFFFF" d="M61.233,83.805c0,0.892-0.731,1.621-1.624,1.621H36.246c-0.893,0-1.621-0.729-1.621-1.621
	V77.32c0-0.892,0.729-1.621,1.621-1.621h23.363c0.893,0,1.624,0.729,1.624,1.621V83.805z"/>
<path display="none" fill="#FFFFFF" d="M61.233,98.11c0,0.892-0.731,1.623-1.624,1.623H36.246c-0.893,0-1.621-0.731-1.621-1.623
	v-6.484c0-0.892,0.729-1.621,1.621-1.621h23.363c0.893,0,1.624,0.729,1.624,1.621V98.11z"/>
<path display="none" fill="#FFFFFF" d="M61.233,112.416c0,0.892-0.731,1.623-1.624,1.623H36.246c-0.893,0-1.621-0.731-1.621-1.623
	v-6.484c0-0.893,0.729-1.622,1.621-1.622h23.363c0.893,0,1.624,0.729,1.624,1.622V112.416z"/>
<rect x="69.934" y="31.642" display="none" fill="#FFFFFF" width="10.014" height="91.896"/>
<rect x="68.789" y="43.157" display="none" fill="#FFFFFF" width="12.304" height="7.726"/>
<rect x="68.789" y="57.461" display="none" fill="#FFFFFF" width="12.304" height="7.726"/>
<rect x="68.789" y="71.767" display="none" fill="#FFFFFF" width="12.304" height="7.726"/>
<path display="none" fill="#FFFFFF" d="M90.921,128.359h46.454c0,0-11.81-31.531-7.682-58.491H89.001
	c4.128,26.96-7.681,58.491-7.681,58.491h52.215"/>
<path display="none" fill="#FFFFFF" d="M67.065,63.369l9.188,6.071l1.669,1.105l2.4,6.216c0.023,0.04,0.057,0.09,0.084,0.128
	l8.057,8.058c0.967-0.44,2.029-0.671,3.127-0.671c0.915,0,1.806,0.16,2.639,0.469l0.99-0.992c0.006-0.688,0.025-1.537,0.091-2.495
	c-0.811-0.979-1.196-2.318-1.461-3.533c-0.155-0.862-0.249-1.745-0.301-2.614c5.607-7.67,9.325-20.188,9.325-30.448
	c0-16.017-9.049-20.48-20.212-20.48c-11.162,0-20.209,4.456-20.209,20.474c0,5.605,1.107,11.879,3.026,17.668L67.065,63.369z"/>
<path display="none" fill="#FFFFFF" d="M131.669,104.467c-0.64-1.915-1.527-3.839-2.672-5.583
	c-4.771,2.968-11.104,3.556-15.033,3.592l-0.523,0.521l14.94,14.94h5.137C133.603,113.767,133.04,108.622,131.669,104.467z"/>
<path display="none" fill="#FFFFFF" d="M76.452,102.521c-0.309-0.832-0.472-1.725-0.472-2.639c0-1.098,0.234-2.158,0.674-3.126
	l-8.091-8.09c-0.067-0.053-0.175-0.124-0.249-0.167c0,0-4.223-1.796-4.225-1.797l-1.688-0.717l-0.572-0.833
	c-6.969,2.298-14.029,4.565-20.181,8.651c-3.57,2.35-5.985,6.66-7.318,10.663c-1.373,4.154-1.934,9.3-1.849,13.471h28.554
	L76.452,102.521z"/>
<path display="none" fill="#FFFFFF" d="M100.684,87.172c0.493-0.493,0.868-1.466,0.839-2.163c0,0-0.454-10.228,3.809-14.491
	c4.34-4.34,14.787-3.729,14.787-3.729c0.696,0.039,0.982,0.354,0.64,0.696c-0.343,0.343-10.479,10.479-10.479,10.479
	c-0.494,0.491-0.747,1.446-0.567,2.119l1.344,5.016c0.181,0.673,0.88,1.37,1.553,1.55l5.016,1.345
	c0.67,0.181,1.626-0.074,2.12-0.567c0,0,10.134-10.136,10.479-10.479c0.34-0.343,0.654-0.054,0.694,0.641
	c0,0,0.61,10.447-3.729,14.787c-4.263,4.263-14.495,3.809-14.495,3.809c-0.694-0.03-1.665,0.349-2.16,0.839l-4.523,4.528
	c-1.346-0.602-3.191-1.588-4.128-2.526c-1.144-1.141-2.356-3.62-2.853-4.912c-0.409-1.068-1.258-2.379-2.067-3.189l-0.015-0.016
	L100.684,87.172z M85.817,107.321c-1.065-0.406-2.376-1.258-3.186-2.064l-0.015-0.017l-23.781,23.78
	c-0.493,0.489-0.493,1.298,0,1.79l8.063,8.061c0.491,0.493,1.296,0.493,1.79,0l24.568-24.568c-0.599-1.345-1.586-3.19-2.526-4.131
	C89.593,109.032,87.113,107.819,85.817,107.321z M107.739,106.179c-0.491-0.491-1.427-1.099-2.078-1.347
	c0,0-3.962-1.511-6.019-3.569c-2.058-2.06-3.572-6.021-3.572-6.021c-0.247-0.65-0.854-1.586-1.347-2.078l-2.239-2.241
	c-0.493-0.491-1.297-0.491-1.793,0l-1.669,1.672c-0.491,0.492-1.299,0.492-1.793,0L75.865,81.231
	c-0.494-0.493-1.102-1.428-1.351-2.077l-1.275-3.298c-0.251-0.65-0.456-1.181-0.456-1.181s-0.475-0.315-1.056-0.699l-8.129-5.369
	c-0.579-0.384-1.058-0.698-1.058-0.698s-0.401,0.4-0.895,0.894l-1.136,1.137c-0.491,0.494-0.895,0.896-0.895,0.896
	s0.322,0.467,0.714,1.044l5.492,7.995c0.395,0.575,0.718,1.044,0.718,1.044s0.525,0.223,1.167,0.496l3.173,1.35
	c0.64,0.274,1.565,0.9,2.06,1.395l11.364,11.363c0.491,0.493,0.491,1.301,0,1.791l-1.672,1.674c-0.492,0.492-0.492,1.299,0,1.79
	l2.242,2.238c0.491,0.494,1.427,1.1,2.077,1.348c0,0,3.96,1.512,6.021,3.57c2.057,2.062,3.569,6.021,3.569,6.021
	c0.249,0.652,0.854,1.585,1.349,2.079l21.69,21.688c0.491,0.494,1.297,0.494,1.79,0l8.06-8.06c0.493-0.492,0.493-1.298,0-1.791
	L107.739,106.179z"/>
<path display="none" fill="#FFFFFF" d="M79.711,43.738l-2.032,9.179l32.185-10.166L84.965,19.961L82.78,29.84
	c-13.244,0.752-26.271,6.163-36.368,16.261c-18.527,18.528-21.32,46.915-8.395,68.424l9.969-9.971
	c-7.86-15.873-5.203-35.677,7.999-48.88C62.659,49,71.021,45.026,79.711,43.738z"/>
<path display="none" fill="#FFFFFF" d="M133.983,56.853l-9.97,9.971c7.86,15.873,5.203,35.677-7.999,48.88
	c-6.674,6.674-15.035,10.648-23.722,11.938l2.03-9.18l-32.187,10.167l24.896,22.788l2.184-9.866
	c13.245-0.755,26.272-6.176,36.371-16.273C144.115,106.749,146.908,78.365,133.983,56.853z"/>
<polygon display="none" fill="#FFFFFF" points="60.688,49.342 115.251,49.342 115.251,40.003 51.349,40.003 51.349,131.997 
	115.251,131.997 115.251,122.659 60.688,122.659 "/>
<polygon display="none" fill="#FFFFFF" points="138.673,86.002 98.354,62.721 98.354,81.332 66.113,81.332 66.113,90.669 
	98.354,90.669 98.354,109.279 "/>
<polygon display="none" fill="#FFFFFF" points="31.151,65.785 31.151,106.213 85.604,106.213 85.604,140.562 148.948,86 
	85.604,31.437 85.604,65.785 "/>
<polygon display="none" fill="#FFFFFF" points="142.949,106.214 142.949,65.786 88.497,65.786 88.497,31.437 25.152,86 
	88.497,140.562 88.497,106.214 "/>
<polygon display="none" fill="#FFFFFF" points="65.348,138.494 102.753,138.494 102.753,88.114 134.533,88.114 84.051,29.505 
	33.568,88.114 65.348,88.114 "/>
<rect x="51.427" y="64.388" transform="matrix(0.7071 -0.7071 0.7071 0.7071 -26.594 90.3306)" display="none" fill="#FFFFFF" width="88.63" height="25.759"/>
<polygon display="none" fill="#FFFFFF" points="52.948,101.845 43.343,129.667 71.165,120.061 62.058,110.953 "/>
<path display="none" fill="#FFFFFF" d="M86.844,85.013l12.524-20.652c-3.885-2.405-8.464-3.797-13.369-3.797
	c-14.047,0-25.436,11.388-25.436,25.436s11.389,25.436,25.436,25.436c14.049,0,25.437-11.388,25.437-25.436
	c0-0.154-0.01-0.304-0.013-0.457L86.844,85.013z"/>
<path display="none" fill="#FFFFFF" d="M142.804,85.621h-0.231c-7.278-24.367-29.837-42.141-56.571-42.141
	c-26.736,0-49.295,17.773-56.574,42.141h-0.23c0.035,0.128,0.078,0.252,0.115,0.379c-0.037,0.127-0.08,0.251-0.115,0.379h0.23
	c7.279,24.367,29.838,42.141,56.572,42.141c26.736,0,49.295-17.773,56.573-42.141h0.231c-0.037-0.128-0.079-0.252-0.116-0.379
	C142.725,85.873,142.767,85.749,142.804,85.621z M85.999,120.953c-21.95,0-41.732-14.281-48.752-34.953
	c7.021-20.672,26.802-34.953,48.754-34.953c21.95,0,41.732,14.281,48.752,34.953C127.733,106.671,107.951,120.953,85.999,120.953z"
	/>
<polygon display="none" fill="#FFFFFF" points="139.99,50.233 121.768,32.01 86,67.777 50.232,32.01 32.01,50.233 67.777,86 
	32.01,121.768 50.232,139.991 86,104.222 121.768,139.991 139.99,121.768 104.223,86 "/>
<path display="none" fill="#FFFFFF" d="M139.758,97.956v20.413c0,2.447-2.004,4.447-4.45,4.447H57.267c-2.448,0-4.45-2-4.45-4.447
	V97.956c0-2.445,1.417-5.864,3.146-7.596L67.29,79.035c1.729-1.731,5.149-3.146,7.596-3.146h14.528V63.16
	c0-13.576-11.045-24.624-24.625-24.624c-13.577,0-24.623,11.048-24.623,24.624v19.121h3.198c0.666,0,1.601,0.387,2.073,0.858
	l3.092,3.093c0.473,0.473,0.856,1.403,0.856,2.072v5.572c0,0.665-0.545,1.213-1.213,1.213H26.868c-0.667,0-1.215-0.548-1.215-1.213
	v-5.572c0-0.669,0.389-1.6,0.86-2.072l3.092-3.093c0.473-0.472,1.404-0.858,2.073-0.858h3.132V63.16
	c0-16.528,13.449-29.979,29.979-29.979c16.53,0,29.979,13.45,29.979,29.979v12.729h22.924c2.447,0,5.862,1.415,7.592,3.146
	l11.33,11.325C138.344,92.091,139.758,95.51,139.758,97.956z M102.403,98.543v12.115h25.197V98.543H102.403z M64.974,110.659h12.797
	V98.543H64.974V110.659z"/>
<path display="none" fill="#FFFFFF" d="M130.525,61.219v11.157h-15.754V57.005h11.54L130.525,61.219z M101.968,40.126H57.207v32.25
	h4.392V44.517h38.55l5.84,5.842v22.018h4.391V48.54L101.968,40.126z M42.786,57.005l-4.517,4.517v62.703l14.545-47.302V57.005
	H42.786z M130.547,124.154l12.73-41.4l-5.987-5.985H57.457l-14.571,47.386H130.547z M100.577,67.984H67.202v4.393h33.375V67.984z
	 M100.577,59.201H67.202v4.393h33.375V59.201z M100.577,50.418H67.202v4.392h33.375V50.418z"/>
<path display="none" fill="#FFFFFF" d="M42.729,38.797v9.26v85.145h85.04V48.057v-9.26H42.729z M123.614,129.046h-76.73V48.057
	h76.73V129.046z M116.551,63.292H53.946v-8.309h62.604V63.292z M116.551,108.974H53.946v-8.31h62.604V108.974z M116.551,123.26
	H53.946v-8.31h62.604V123.26z M73.789,81.308c0,5.48-4.442,9.921-9.921,9.921c-5.479,0-9.922-4.44-9.922-9.921
	c0-5.479,4.442-9.919,9.922-9.919C69.347,71.389,73.789,75.83,73.789,81.308z M116.551,91.23H96.708V71.388h19.843V91.23z"/>
<path display="none" fill="#FFFFFF" d="M58.492,73.311h37.513v45.384H58.492V73.311z M66.717,70.275h32.578v41.967h4.936V66.858
	H66.717V70.275z M74.943,60.405v3.416h32.577v41.968h4.935V60.405H74.943z M138.775,82.048
	c-1.898-27.363-24.854-48.797-52.261-48.797c-1.215,0-2.447,0.043-3.664,0.127c-10.656,0.739-20.688,4.636-29.011,11.269
	c-7.083,5.645-12.528,12.927-15.912,21.227l-6.682-3.556l0.896,25.821l21.911-13.685l-10.317-5.49
	C50.178,52.44,65.417,41.14,83.303,39.899c1.066-0.074,2.146-0.111,3.21-0.111c23.988,0,44.081,18.762,45.742,42.712
	c0.848,12.208-3.123,24.028-11.179,33.285s-19.215,14.821-31.422,15.668l-1.414,0.099l0.451,6.52l1.414-0.098
	c13.948-0.968,26.697-7.324,35.899-17.898C135.208,109.5,139.743,95.996,138.775,82.048z"/>
<rect x="49.93" y="36.306" display="none" fill="#FFFFFF" width="15.497" height="98.114"/>
<rect x="111.919" y="101.715" display="none" fill="#FFFFFF" width="15.497" height="32.705"/>
<rect x="80.924" y="69.012" display="none" fill="#FFFFFF" width="15.498" height="65.408"/>
<polygon display="none" fill="#FFFFFF" points="134.995,80.116 91.227,80.116 91.227,36.346 81.336,36.346 81.336,80.116 
	37.565,80.116 37.565,90.006 81.336,90.006 81.336,133.776 91.227,133.776 91.227,90.006 134.995,90.006 "/>
<path display="none" fill="#FFFFFF" d="M139.551,78.817l-2.288-0.813c-9.964-3.543-14.4-14.257-9.86-23.806l1.042-2.193
	c4.539-9.552,0.44-13.65-9.11-9.11l-2.192,1.042c-9.551,4.541-20.264,0.104-23.808-9.861l-0.813-2.288
	c-3.543-9.964-9.341-9.964-12.885,0l-0.813,2.288c-3.543,9.965-14.257,14.402-23.806,9.861l-2.193-1.042
	c-9.551-4.54-13.65-0.441-9.11,9.11l1.042,2.191c4.541,9.551,0.104,20.265-9.86,23.808l-2.289,0.813
	c-9.962,3.543-9.962,9.342,0,12.885l2.289,0.813c9.964,3.543,14.401,14.257,9.86,23.806l-1.042,2.193
	c-4.54,9.552-0.44,13.65,9.11,9.11l2.193-1.042c9.549-4.541,20.263-0.104,23.806,9.861l0.813,2.288
	c3.544,9.962,9.342,9.962,12.885,0l0.813-2.288c3.544-9.965,14.257-14.402,23.808-9.861l2.192,1.042
	c9.551,4.54,13.649,0.441,9.11-9.11l-1.042-2.193c-4.54-9.549-0.104-20.263,9.86-23.806l2.288-0.813
	C149.515,88.159,149.515,82.36,139.551,78.817z M86.078,123.887c-21.333,0-38.628-17.296-38.628-38.628
	c0-21.334,17.295-38.628,38.628-38.628c21.334,0,38.628,17.294,38.628,38.628C124.706,106.591,107.412,123.887,86.078,123.887z"/>
<polygon display="none" fill="#FFFFFF" points="134.449,54.624 118.471,38.646 86.916,70.202 55.36,38.646 39.383,54.624 
	70.938,86.179 39.383,117.735 55.36,133.712 86.916,102.157 118.471,133.712 134.449,117.735 102.895,86.179 "/>
<path display="none" fill="#FFFFFF" d="M44.166,111.773c0-1.377,1.125-2.503,2.502-2.503h81.495c1.377,0,2.502,1.126,2.502,2.503
	v6.253c0,1.377-1.125,2.504-2.502,2.504H46.668c-1.377,0-2.502-1.127-2.502-2.504V111.773z"/>
<path display="none" fill="#FFFFFF" d="M123.585,46.167H47.247c-1.288,0-2.344,1.056-2.344,2.344v76.338
	c0,1.288,1.056,2.344,2.344,2.344h76.338c1.288,0,2.344-1.056,2.344-2.344V48.51C125.929,47.222,124.873,46.167,123.585,46.167z
	 M115.382,115.474c0,0.645-0.527,1.171-1.171,1.171h-57.59c-0.645,0-1.171-0.526-1.171-1.171v-57.59
	c0-0.645,0.526-1.171,1.171-1.171h57.59c0.644,0,1.171,0.526,1.171,1.171V115.474z"/>
<path display="none" fill="#FFFFFF" d="M128.53,42.667h-4.329c-0.657,3.224-3.509,5.649-6.929,5.649s-6.271-2.426-6.928-5.649
	h-6.411c-0.656,3.224-3.508,5.649-6.928,5.649s-6.272-2.426-6.93-5.649h-6.409c-0.657,3.224-3.51,5.649-6.93,5.649
	s-6.271-2.426-6.928-5.649h-6.411c-0.656,3.224-3.508,5.649-6.928,5.649s-6.271-2.426-6.929-5.649h-4.329
	c-1.594,0-2.886,1.527-2.886,3.412v82.262c0,1.886,1.292,3.414,2.886,3.414h83.317c1.594,0,2.886-1.528,2.886-3.414V46.08
	C131.416,44.195,130.124,42.667,128.53,42.667z M124.737,122.313c0,1.366-1.098,2.474-2.453,2.474H51.459
	c-1.355,0-2.453-1.107-2.453-2.474V62.714c0-1.365,1.098-2.471,2.453-2.471h70.825c1.355,0,2.453,1.105,2.453,2.471V122.313z
	 M55.149,91.065l8.346-8.343L81,100.226l29.249-29.248l8.345,8.344L81,116.914L55.149,91.065z"/>
<path display="none" fill="#FFFFFF" d="M100.058,34.328c-21.706,0-39.367,17.661-39.367,39.369
	c0,21.706,17.661,39.367,39.367,39.367c21.707,0,39.368-17.661,39.368-39.367C139.426,51.989,121.765,34.328,100.058,34.328z
	 M100.058,104.729c-17.11,0-31.032-13.922-31.032-31.032c0-17.112,13.922-31.034,31.032-31.034
	c17.111,0,31.033,13.922,31.033,31.034C131.091,90.807,117.169,104.729,100.058,104.729z"/>
<path display="none" fill="#FFFFFF" d="M65.466,96.499l-26.189,26.19l11.788,11.788l26.19-26.189
	C72.576,105.193,68.561,101.177,65.466,96.499z"/>
<polygon display="none" fill="#FFFFFF" points="84.916,142.679 133.311,95.738 36.521,95.738 "/>
<polygon display="none" fill="#FFFFFF" points="84.916,28.679 36.521,75.621 133.311,75.621 "/>
<path display="none" fill="#FFFFFF" d="M78.992,89.014v-0.301c5.761-2.086,11.821-7.942,11.821-16.385
	c0-6.161-2.186-10.928-6.261-14.106c-4.768-3.774-11.718-5.265-21.652-5.265c-8.144,0-15.297,0.596-20.164,1.39v66.055h14.999
	V94.078h4.472c6.257,0.101,9.136,2.289,11.021,10.731c1.893,8.24,3.578,13.604,4.571,15.593h15.496
	c-1.293-2.582-3.276-11.321-5.364-18.974C86.242,95.274,83.66,90.899,78.992,89.014z M63.693,83.153h-5.958V64.778
	c1.093-0.299,3.179-0.499,6.854-0.499c6.953,0,11.124,3.179,11.124,9.239C75.714,79.381,71.242,83.153,63.693,83.153z"/>
<polygon display="none" fill="#FFFFFF" points="118.66,80.196 118.66,70.743 91.051,86.678 118.66,102.621 118.66,92.985 
	137.517,92.985 137.517,80.196 "/>
<path display="none" fill="#FFFFFF" d="M97.256,75.982H56.493v-5.715c0-16.54,13.457-29.997,29.997-29.997
	c8.512,0,16.203,3.57,21.668,9.284l3.522-3.465c-6.355-6.62-15.289-10.748-25.19-10.748c-19.288,0-34.926,15.637-34.926,34.926
	v5.715v51.321h69.852V75.982h-4.929H97.256z"/>
<path display="none" fill="#FFFFFF" d="M86.49,35.342c-19.288,0-34.925,15.637-34.925,34.925v5.715v51.322h69.85V75.982v-5.715
	C121.415,50.979,105.778,35.342,86.49,35.342z M56.493,75.982v-5.715c0-16.54,13.457-29.996,29.997-29.996
	s29.997,13.456,29.997,29.996v5.715H56.493z"/>
<polygon display="none" fill="#FFFFFF" points="75.211,126.591 32.729,84.11 41.716,75.121 75.211,108.615 131.174,52.652 
	140.162,61.639 "/>
<polygon display="none" fill="#FFFFFF" points="66.533,46.315 66.533,58.129 111.828,58.129 111.828,107.507 123.644,107.507 
	123.644,46.315 "/>
<rect x="48.355" y="64.492" display="none" fill="#FFFFFF" width="57.11" height="61.192"/>
<polygon display="none" fill="#FFFFFF" points="60.762,68.442 100.354,68.442 100.354,111.604 110.682,111.604 110.682,58.115 
	60.762,58.115 "/>
<polygon display="none" fill="#FFFFFF" points="76.495,41.507 76.495,51.833 116.088,51.833 116.088,94.996 126.416,94.996 
	126.416,41.507 "/>
<rect x="44.872" y="74.003" display="none" fill="#FFFFFF" width="49.921" height="53.488"/>
<path display="none" fill="#FFFFFF" d="M112.687,73.603H57.313V54.226l5.692-5.692h49.681V73.603z M126.466,92.498v29.728H43.534
	V92.498l13.779-13.779h55.373L126.466,92.498z M114.909,104.679H55.091v10.717h59.818V104.679z"/>
<path display="none" fill="#FFFFFF" d="M86,72.626c-8.89,0-16.121,7.232-16.121,16.122S77.11,104.87,86,104.87
	s16.121-7.231,16.121-16.121S94.89,72.626,86,72.626z"/>
<path display="none" fill="#FFFFFF" d="M127.492,57.628h-19.777l-9.498-9.496H73.782l-9.497,9.496H44.507L34.134,68.001v41.494
	l10.374,10.373h82.985l10.373-10.373V68.003L127.492,57.628z M86,112.189c-12.925,0-23.439-10.516-23.439-23.44
	S73.075,65.308,86,65.308s23.439,10.516,23.439,23.44S98.925,112.189,86,112.189z"/>
<path display="none" fill="#FFFFFF" d="M127.219,64.624v10.634h-15.018v-14.65h11L127.219,64.624z M99.997,44.517H57.332v30.74
	h4.187V48.704h36.745l5.566,5.566v20.987h4.186V52.536L99.997,44.517z M43.585,60.607l-4.305,4.305v59.768L53.146,79.59V60.607
	H43.585z M127.239,124.611l12.134-39.462l-5.707-5.707H57.569l-13.889,45.169H127.239z M98.673,71.071H66.86v4.187h31.813V71.071z
	 M98.673,62.699H66.86v4.186h31.813V62.699z M98.673,54.329H66.86v4.185h31.813V54.329z"/>
<path display="none" fill="#FFFFFF" d="M91.155,75.967c0.592,1.54,2.042,4.497,3.401,5.855c1.119,1.12,3.319,2.3,4.925,3.013
	l5.397-5.397c0.588-0.588,1.747-1.038,2.577-1.001c0,0,12.201,0.543,17.286-4.542c5.177-5.179,4.449-17.638,4.449-17.638
	c-0.049-0.83-0.424-1.174-0.832-0.765c-0.409,0.409-12.499,12.498-12.499,12.498c-0.588,0.589-1.725,0.893-2.527,0.678l-5.982-1.604
	c-0.803-0.215-1.635-1.047-1.851-1.85l-1.603-5.982c-0.215-0.803,0.09-1.94,0.678-2.528c0,0,12.089-12.089,12.498-12.498
	c0.409-0.408,0.065-0.783-0.765-0.832c0,0-12.459-0.728-17.638,4.449c-5.085,5.085-4.542,17.286-4.542,17.286
	c0.037,0.829-0.413,1.989-1.001,2.577l-4.457,4.457l0.02,0.02C89.654,73.128,90.669,74.692,91.155,75.967z"/>
<path display="none" fill="#FFFFFF" d="M75.397,91.719c-1.271-0.485-2.834-1.499-3.799-2.463l-0.021-0.02l-28.363,28.364
	c-0.588,0.587-0.588,1.549,0,2.136l9.613,9.614c0.588,0.588,1.55,0.588,2.138,0l29.304-29.305c-0.713-1.603-1.892-3.805-3.012-4.924
	C79.898,93.762,76.941,92.313,75.397,91.719z"/>
<path display="none" fill="#FFFFFF" d="M101.545,90.359c-0.588-0.587-1.703-1.31-2.479-1.605c0,0-4.725-1.804-7.181-4.259
	c-2.455-2.455-4.258-7.18-4.258-7.18c-0.297-0.777-1.02-1.893-1.606-2.48l-2.672-2.671c-0.587-0.587-1.549-0.587-2.137,0
	l-1.993,1.993c-0.588,0.588-1.55,0.588-2.136,0L63.526,60.6c-0.588-0.586-1.313-1.701-1.612-2.477l-1.519-3.934
	c-0.3-0.775-0.544-1.408-0.544-1.408l0,0c0,0-0.567-0.376-1.261-0.835l-9.695-6.404c-0.693-0.458-1.261-0.833-1.261-0.833
	s-0.481,0.479-1.068,1.068l-1.354,1.354c-0.588,0.587-1.068,1.067-1.068,1.067s0.385,0.562,0.854,1.246l6.55,9.538
	c0.471,0.685,0.855,1.244,0.855,1.244l0,0c0,0,0.626,0.267,1.39,0.593l3.784,1.611c0.765,0.325,1.871,1.072,2.457,1.66
	l13.557,13.556c0.588,0.587,0.588,1.549,0,2.137l-1.993,1.992c-0.587,0.589-0.587,1.55,0,2.138l2.671,2.672
	c0.588,0.586,1.704,1.31,2.48,1.605c0,0,4.724,1.804,7.18,4.259c2.455,2.456,4.259,7.18,4.259,7.18
	c0.296,0.777,1.019,1.892,1.606,2.48l25.871,25.871c0.588,0.588,1.55,0.588,2.137-0.001l9.614-9.614
	c0.588-0.587,0.588-1.549,0-2.136L101.545,90.359z"/>
<path display="none" fill="#FFFFFF" d="M86.001,33.314c-29.099,0-52.687,23.588-52.687,52.686s23.588,52.686,52.687,52.686
	c29.097,0,52.686-23.588,52.686-52.686S115.098,33.314,86.001,33.314z M86.001,123.299c-9.523,0-18.589-3.588-25.527-10.103
	l4.255-4.533c5.781,5.43,13.336,8.42,21.272,8.42c17.14,0,31.083-13.944,31.083-31.084s-13.943-31.084-31.083-31.084
	c-14.065,0-25.972,9.393-29.793,22.232l8.368,2.291l-8.478,8.387l-8.476,8.387l-3.025-11.534l-3.024-11.534l8.64,2.364
	C54.757,60.035,69.076,48.7,86.001,48.7c20.567,0,37.3,16.732,37.3,37.3S106.568,123.299,86.001,123.299z M89.304,88.442
	l-16.295,8.619l-2.906-5.495l12.99-6.872V63.757h6.217v24.672h-0.013L89.304,88.442z"/>
<path display="none" fill="#FFFFFF" d="M85.776,137.023c-7.747,0-13.109-5.809-13.109-13.557c0-8.045,5.512-13.557,13.408-13.557
	c7.895,0,13.109,5.512,13.257,13.557c0,7.748-5.214,13.557-13.257,13.557H85.776z M77.583,102.46l-3.278-67.484h23.538
	l-3.276,67.484H77.583z"/>
<path display="none" fill="#FFFFFF" d="M45.779,45.78v37.854h37.854V45.78H45.779z M78.901,78.903H50.511V50.512h28.391V78.903z
	 M74.17,74.171H55.242V55.244H74.17V74.171z M45.779,88.366v37.854h37.854V88.366H45.779z M78.901,121.489H50.511V93.097h28.391
	V121.489z M74.17,116.757H55.242V97.83H74.17V116.757z M88.365,45.78v37.854h37.854V45.78H88.365z M121.487,78.903H93.097V50.512
	h28.391V78.903z M116.756,74.171H97.828V55.244h18.928V74.171z M97.829,97.83v4.732v4.73h-4.732h-4.731v-4.73V97.83h4.731H97.829z
	 M107.292,97.83v4.732v4.73h-4.73h-4.732v-4.73V97.83h4.732H107.292z M116.756,97.83v4.732v4.73h-4.732h-4.731v-4.73V97.83h4.731
	H116.756z M107.292,88.366v4.731v4.732h-4.73h-4.732v-4.732v-4.731h4.732H107.292z M126.22,88.366v4.731v4.732h-4.732h-4.731v-4.732
	v-4.731h4.731H126.22z M116.756,107.292v4.731v4.731h-4.732h-4.731v-4.731v-4.731h4.731H116.756z M126.22,107.292v4.731v4.731
	h-4.732h-4.731v-4.731v-4.731h4.731H126.22z M97.829,116.755v4.731v4.732h-4.732h-4.731v-4.732v-4.731h4.731H97.829z
	 M116.756,116.755v4.731v4.732h-4.732h-4.731v-4.732v-4.731h4.731H116.756z"/>
<polygon display="none" fill="#FFFFFF" points="118.438,43.541 88.256,86.458 105.7,98.697 135.837,55.75 "/>
<polygon display="none" fill="#FFFFFF" points="86.677,88.708 82.824,112.751 104.122,100.951 95.399,94.83 "/>
<path display="none" fill="#FFFFFF" d="M93.025,115.951c-2.317-1.658-8.864,0.811-10.694,2.459c-0.879,0.82-1.785,1.609-2.718,2.369
	c-0.157,0.121-0.315,0.242-0.473,0.365c-0.979-0.674-1.846-1.688-2.478-2.426c-2.686-3.145-4.909-6.646-7.638-9.768
	c-1.724-1.973-9.208,1.145-10.694,2.459c-1.245,1.102-2.52,2.146-3.861,3.127c-0.14,0.102-0.848,0.477-1.4,0.793
	c-0.039-0.012-0.076-0.023-0.117-0.037c-0.859-0.309-1.607-0.863-2.285-1.459c-3.303-2.906-3.57-8.666-3.346-12.686
	c0.529-9.502,7.153-24.18,18.438-23.137c2.733,0.252,5.593-0.441,8.082-1.557c0.64-0.285,4.19-2.479,1.498-2.727
	c-19.458-1.797-37.526,9.729-39.558,29.861c-0.563,5.586,0.558,13.508,6.652,15.697c5.803,2.084,12.469,0.076,18.188-3.143
	c2.894,4.131,5.887,8.877,10.671,9.988c4.435,1.027,9.146-0.486,13.358-2.863c0.035,0.051,0.065,0.102,0.103,0.152
	c1.919,2.682,12.294-2.123,11.59-3.105C95.188,118.699,94.701,117.15,93.025,115.951z M53.851,115.482
	C54.082,115.455,54.055,115.49,53.851,115.482L53.851,115.482z"/>
<path display="none" fill="#FFFFFF" d="M109.74,114.3h17.354v11.775H92.757v-9.174c9.173-6.568,16.983-18.47,16.983-34.462
	c0-14.628-8.306-29.131-23.43-29.131c-14.999,0-24.049,13.883-24.049,29.256c0,14.627,7.934,28.635,17.106,34.337v9.174H44.906
	V114.3h17.106v-0.373c-7.561-6.198-15.619-17.728-15.619-32.976c0-22.808,16.736-39.916,40.289-39.916
	c24.421,0,38.801,17.976,38.801,38.677c0,16.612-8.429,27.894-15.743,34.215V114.3z"/>
<path display="none" fill="#FFFFFF" d="M114.843,63.679H57.157c-1.461,0-2.571,1.193-2.467,2.65l5.244,63.699
	c0.104,1.457,1.387,2.65,2.848,2.65h46.436c1.461,0,2.743-1.193,2.848-2.65l5.244-63.699
	C117.414,64.873,116.304,63.679,114.843,63.679z M73.275,126.261h-3.087c-1.461,0-2.739-1.192-2.841-2.65l-3.383-48.988
	c-0.102-1.458,1.013-2.651,2.474-2.651h3.087c1.462,0,2.74,1.193,2.841,2.651l3.384,48.988
	C75.851,125.069,74.737,126.261,73.275,126.261z M90.201,123.605c0,1.461-1.196,2.656-2.658,2.656h-3.086
	c-1.462,0-2.658-1.195-2.658-2.656V74.628c0-1.461,1.196-2.657,2.658-2.657h3.086c1.462,0,2.658,1.196,2.658,2.657V123.605z
	 M108.035,74.623l-3.383,48.988c-0.102,1.458-1.38,2.65-2.841,2.65h-3.087c-1.462,0-2.575-1.192-2.475-2.65l3.384-48.988
	c0.101-1.458,1.379-2.651,2.841-2.651h3.087C107.022,71.971,108.137,73.165,108.035,74.623z M119,49.4v7.789
	c0,1.532-1.253,2.785-2.784,2.785H55.784c-1.531,0-2.784-1.253-2.784-2.785V49.4c0-1.53,1.253-2.783,2.784-2.783h20.505
	c2.125-3.085,5.682-5.107,9.711-5.107s7.586,2.022,9.711,5.107h20.505C117.747,46.617,119,47.87,119,49.4z"/>
<polygon display="none" fill="#FFFFFF" points="113.087,117.477 58.913,117.477 58.913,97.892 46.314,97.892 46.314,131.233 
	125.686,131.233 125.686,97.892 113.087,97.892 "/>
<polygon display="none" fill="#FFFFFF" points="79.702,59.528 79.702,108.25 92.301,108.25 92.301,59.528 117.953,89.464 
	126.583,79.39 86.001,32.026 45.417,79.39 54.046,89.464 "/>
<path display="none" fill="#FFFFFF" d="M57.257,44.121c6.305-1.027,15.57-1.8,26.117-1.8c12.869,0,21.871,1.929,28.047,6.818
	c5.277,4.117,8.108,10.293,8.108,18.271c0,10.936-7.85,18.522-15.312,21.224v0.389c6.046,2.442,9.391,8.108,11.579,16.08
	c2.705,9.912,5.273,21.231,6.947,24.576h-20.071c-1.286-2.576-3.47-9.524-5.921-20.196c-2.442-10.936-6.171-13.771-14.275-13.9
	h-5.791v34.097H57.257V44.121z M76.686,81.432h7.716c9.779,0,15.57-4.886,15.57-12.48c0-7.85-5.403-11.967-14.409-11.967
	c-4.761,0-7.462,0.259-8.877,0.647V81.432z"/>
<path display="none" fill="#FFFFFF" d="M131.704,58.226c-0.638-0.441-1.409-0.703-2.239-0.703H42.536
	c-0.831,0-1.602,0.262-2.24,0.703L86,85.648L131.704,58.226z"/>
<path display="none" fill="#FFFFFF" d="M86,90.2l-1.004-0.603L38.585,61.75v48.721c0,2.173,1.777,3.951,3.951,3.951l87.755,0.054
	c1.779-0.384,3.125-2.115,3.125-4.005V61.75L86,90.2z"/>
<path display="none" fill="#FFFFFF" d="M76.808,68.223c-5.087-0.619-11.945-3.671-12.679-9.396
	c-0.942-7.353,6.954-9.719,10.854-14.061c3.502-3.898,2.462-9.196-1.705-12.318c0.005,0.002,0.011,0.004,0.016,0.006
	c8.689,2.631,10.85,11.331,4.539,17.642c-3.616,2.302-5.666,5.743-5.064,10.04C72.977,61.632,74.86,67.986,76.808,68.223z
	 M87.666,53.74c5.041-5.041,3.315-11.993-3.626-14.096c-0.004-0.001-0.009-0.002-0.014-0.003c3.33,2.493,4.161,6.727,1.362,9.842
	c-3.115,3.468-9.425,5.359-8.672,11.233c0.586,4.574,6.066,7.013,10.131,7.507c-1.556-0.189-3.061-5.266-3.229-6.461
	C83.139,58.329,84.775,55.58,87.666,53.74z M96.005,57.361c3.78-3.781,2.487-8.995-2.72-10.571
	c-0.003-0.001-0.006-0.002-0.011-0.003c2.498,1.87,3.122,5.046,1.022,7.382c-2.336,2.6-7.068,4.019-6.504,8.425
	c0.44,3.431,4.55,5.26,7.598,5.63c-1.166-0.142-2.295-3.949-2.421-4.847C92.609,60.802,93.837,58.74,96.005,57.361z
	 M114.428,110.329c-0.598,1.463-1.172,2.798-1.696,3.974c6.591,1.668,10.63,3.91,10.63,6.377c0,5.151-17.607,9.327-39.326,9.327
	s-39.325-4.176-39.325-9.327c0-2.467,4.037-4.709,10.629-6.377c-1.067-2.395-2.343-5.445-3.591-8.904
	c-2.952-8.175-5.75-18.609-5.299-27.947c-0.032-0.127-0.051-0.255-0.051-0.383c0-4.037,16.852-7.311,37.637-7.311
	c20.786,0,37.636,3.273,37.636,7.311c0,0.128-0.017,0.256-0.05,0.383c0.081,1.672,0.056,3.381-0.055,5.105
	c1.963,0.183,3.898,0.526,5.606,1.169c5.057,1.903,6.118,5.656,6.118,8.469c0,8.142-10.077,18.149-18.276,18.149
	C114.816,110.343,114.621,110.336,114.428,110.329z M116.411,105.153c5.557-1.108,11.839-8.368,11.839-12.959
	c0-2.362-1.351-4.076-7.229-4.611C120.096,93.765,118.291,99.911,116.411,105.153z M58.283,105.483
	c3.211,0.848,7.761,1.489,13.045,1.812c-0.567-1.337-1.182-2.872-1.787-4.549c-1.679-4.648-3.28-10.364-3.597-15.832
	c-7.22-0.829-12.176-2.322-12.632-4.047c-0.31,6.391,1.604,13.529,3.625,19.123C57.389,103.241,57.846,104.414,58.283,105.483z
	 M109.748,117.838c-0.655,0.182-1.361,0.36-2.127,0.535c-6.287,1.441-14.663,2.234-23.586,2.234c-8.922,0-17.298-0.793-23.585-2.234
	c-0.766-0.175-1.472-0.354-2.127-0.535c0.383,0.889,0.753,1.713,1.097,2.459c6.612,1.586,15.642,2.398,24.615,2.398
	c8.975,0,18.004-0.813,24.615-2.398C108.994,119.551,109.364,118.727,109.748,117.838z M118.418,77.068
	c-0.763-0.688-3.452-2.111-10.117-3.322c-6.544-1.189-15.021-1.844-23.871-1.844c-8.849,0-17.326,0.654-23.869,1.844
	c-6.667,1.211-9.354,2.635-10.119,3.322c0.764,0.688,3.451,2.111,10.119,3.324c6.543,1.188,15.021,1.843,23.869,1.843
	c8.851,0,17.327-0.654,23.87-1.843C114.967,79.179,117.655,77.755,118.418,77.068z"/>
<path display="none" fill="#FFFFFF" d="M42.541,78.636v14.043v33.605h47.65V92.679V78.636H42.541z M87.863,123.958H44.869V92.679
	h42.994V123.958z M83.905,101.216H48.827V96.56h35.078V101.216z M83.905,110.802H48.827v-4.657h35.078V110.802z M83.905,120.387
	H48.827v-4.656h35.078V120.387z"/>
<path display="none" fill="#FFFFFF" d="M120.713,101.75c-2.125-7.74-5.373-13.242-11.244-15.613v-0.377
	c7.246-2.624,14.866-9.991,14.866-20.609c0-7.748-2.749-13.745-7.872-17.742c-5.996-4.748-14.739-6.621-27.233-6.621
	c-10.243,0-19.238,0.75-25.361,1.747v31.363h18.866V55.654c1.374-0.377,3.997-0.628,8.619-0.628c8.746,0,13.992,3.997,13.992,11.62
	c0,6.357-4.181,10.757-11.416,11.851v13.105v1.708c4.187,1.423,6.569,4.984,8.292,12.692c2.376,10.363,4.499,17.11,5.749,19.611
	h19.488C125.833,122.367,123.338,111.375,120.713,101.75z"/>
<path display="none" fill="#FFFFFF" d="M58.201,108.289l39.646-39.647c2.468-5.588,3.965-12.299,3.965-18.104
	c0-12.74-7.2-16.293-16.081-16.293c-8.883,0-16.081,3.545-16.081,16.288c0,8.458,3.172,18.833,7.901,24.859
	c-0.044,0.476-0.099,0.952-0.185,1.426c-0.283,1.297-0.735,2.743-1.945,3.462c-1.359,0.807-2.865,1.319-4.351,1.839
	c-6.151,2.068-12.512,3.894-17.972,7.52c-2.839,1.869-4.762,5.3-5.822,8.483c-1.093,3.307-1.54,7.4-1.472,10.719h12.228
	L58.201,108.289z"/>
<path display="none" fill="#FFFFFF" d="M124.724,98.121c-1.062-3.184-2.985-6.396-5.823-8.266c-1.185-0.786-2.413-1.488-3.67-2.134
	l-21.118,21.118h32.082C126.263,105.521,125.814,101.427,124.724,98.121z"/>
<rect x="56.174" y="83.279" transform="matrix(0.7071 -0.7071 0.7071 0.7071 -37.954 92.4849)" display="none" fill="#FFFFFF" width="72.979" height="17.557"/>
<polygon display="none" fill="#FFFFFF" points="56.395,115.911 56.395,115.911 50.966,133.755 68.81,128.325 68.81,128.325 
	69.221,127.915 56.807,115.5 "/>
<path display="none" fill="#FFFFFF" d="M84.226,49.937l-31.479-2.818c-2.797-0.251-4.879,1.831-4.628,4.627l2.817,31.48
	c0.25,2.796,2.08,6.708,4.064,8.693l42.204,42.203c1.984,1.985,5.232,1.985,7.219,0l11.741-11.741
	c1.984-1.985,5.232-5.232,7.217-7.217l11.743-11.743c1.984-1.984,1.984-5.232,0-7.217L92.919,54
	C90.934,52.015,87.023,50.185,84.226,49.937z M104.416,123.786l-3.82,3.82L62.215,89.223l3.818-3.819L104.416,123.786z
	 M112.477,115.722l-3.817,3.819L70.276,81.16l3.821-3.819L112.477,115.722z M57.115,66.388c-2.837-2.837-2.837-7.437,0-10.272
	c2.838-2.837,7.436-2.837,10.272,0c2.837,2.836,2.839,7.436,0,10.272C64.551,69.225,59.951,69.225,57.115,66.388z M120.541,107.659
	l-3.819,3.819l-38.381-38.38l3.817-3.82L120.541,107.659z M128.605,99.597l-3.82,3.819L86.403,65.035l3.819-3.819L128.605,99.597z"
	/>
<circle display="none" fill="#FFFFFF" cx="88.065" cy="87.704" r="29.552"/>
<path display="none" fill="#FFFFFF" d="M88.065,46.806V32.372c-30.511,0-55.332,24.821-55.332,55.332h14.434
	C47.167,65.153,65.514,46.806,88.065,46.806z"/>
<circle display="none" fill="#FFFFFF" cx="86" cy="86" r="28.347"/>
<path display="none" fill="#FFFFFF" d="M92.871,124.321v13.898c23.563-3.085,42.264-21.786,45.349-45.349h-13.9
	C121.463,108.843,108.844,121.463,92.871,124.321z"/>
<path display="none" fill="#FFFFFF" d="M79.129,47.678V33.78C55.566,36.865,36.865,55.566,33.78,79.128h13.9
	C50.537,63.156,63.156,50.536,79.129,47.678z"/>
<path display="none" fill="#FFFFFF" d="M124.319,79.128h13.9c-3.085-23.563-21.786-42.264-45.349-45.349v13.898
	C108.844,50.536,121.463,63.156,124.319,79.128z"/>
<path display="none" fill="#FFFFFF" d="M47.681,92.871h-13.9c3.085,23.563,21.786,42.264,45.349,45.349v-13.898
	C63.156,121.463,50.537,108.843,47.681,92.871z"/>
<path display="none" fill="#FFFFFF" d="M128.717,54.815c-0.609-0.422-1.349-0.672-2.142-0.672H43.427
	c-0.794,0-1.533,0.25-2.142,0.672L85,81.045L128.717,54.815z"/>
<path display="none" fill="#FFFFFF" d="M85,85.4l-0.961-0.577L39.646,58.187v46.601c0,2.079,1.702,3.779,3.78,3.779h26.095
	l0.735-2.16c2.034-5.991,5.854-11.131,11.047-14.86c5.206-3.741,11.314-5.719,17.66-5.719c6.347,0,12.453,1.978,17.661,5.719
	c5.193,3.729,9.014,8.869,11.048,14.86l0.595,1.754c1.234-0.624,2.087-1.901,2.087-3.373V58.187L85,85.4z"/>
<path display="none" fill="#FFFFFF" d="M114.348,94.715c-4.54-3.262-9.859-4.985-15.384-4.985S88.12,91.454,83.58,94.715
	c-4.527,3.254-7.857,7.729-9.629,12.946l-0.411,1.214l0.411,1.212c1.771,5.218,5.102,9.693,9.629,12.946
	c4.54,3.262,9.859,4.985,15.383,4.985c5.524,0,10.845-1.724,15.385-4.985c4.527-3.253,7.857-7.729,9.628-12.946l0.413-1.212
	l-0.413-1.214C122.205,102.445,118.875,97.969,114.348,94.715z M98.963,122.441c-8.52,0-16.196-5.543-18.921-13.565
	c2.725-8.024,10.401-13.566,18.922-13.566s16.198,5.542,18.923,13.566C115.162,116.898,107.484,122.441,98.963,122.441z"/>
<path display="none" fill="#FFFFFF" d="M99.276,108.508l4.645-7.658c-1.44-0.892-3.139-1.408-4.958-1.408
	c-5.208,0-9.433,4.223-9.433,9.434c0,5.209,4.225,9.432,9.433,9.432c5.21,0,9.434-4.223,9.434-9.432
	c0-0.058-0.003-0.114-0.005-0.169L99.276,108.508z"/>
<path display="none" fill="#FFFFFF" d="M82.525,85.26c0-9.551,5.668-17.798,13.813-21.569c0.377-2.261,0.585-4.499,0.585-6.614
	c0-12.542-7.088-16.039-15.83-16.039s-15.828,3.489-15.828,16.033c0,8.325,3.123,18.537,7.777,24.47
	c-0.042,0.468-0.097,0.937-0.182,1.402c-0.278,1.275-0.725,2.701-1.916,3.408c-1.336,0.793-2.818,1.298-4.28,1.809
	c-6.055,2.036-12.316,3.835-17.689,7.402c-2.795,1.841-4.688,5.216-5.731,8.351c-1.075,3.254-1.516,7.284-1.449,10.551h39.563
	h10.036v-10.695C85.814,99.272,82.525,92.462,82.525,85.26z"/>
<path display="none" fill="#FFFFFF" d="M110.564,64.381c-11.531,0-20.878,9.349-20.878,20.879c0,7.059,3.506,13.294,8.867,17.073
	v28.09l12.011-12.013l12.011,12.013v-28.089c5.361-3.779,8.868-10.016,8.868-17.074C131.443,73.73,122.096,64.381,110.564,64.381z"
	/>
<path display="none" fill="#FFFFFF" d="M119.895,109.943c-3.68,1.431-7.591,2.176-11.596,2.176c-6.757,0-13.26-2.105-18.804-6.089
	c-5.53-3.973-9.6-9.445-11.765-15.823l-0.847-2.496l0.847-2.496c2.166-6.379,6.235-11.85,11.765-15.822
	c1.952-1.404,4.028-2.569,6.188-3.497c0.226-1.784,0.35-3.542,0.35-5.226c0-13.516-7.638-17.283-17.057-17.283
	c-9.42,0-17.055,3.761-17.055,17.276c0,8.972,3.363,19.975,8.38,26.365c-0.046,0.504-0.105,1.01-0.196,1.512
	c-0.3,1.375-0.78,2.91-2.064,3.673c-1.439,0.854-3.039,1.397-4.613,1.949c-6.524,2.194-13.271,4.13-19.061,7.976
	c-3.012,1.982-5.051,5.62-6.176,8.997c-1.158,3.507-1.633,7.85-1.56,11.369H79.26h42.631c0.072-3.52-0.401-7.862-1.56-11.369
	C120.199,110.738,120.052,110.339,119.895,109.943z"/>
<path display="none" fill="#FFFFFF" d="M135.391,86.397c-1.918-5.65-5.524-10.499-10.429-14.022
	c-4.916-3.532-10.678-5.398-16.662-5.398c-5.982,0-11.745,1.866-16.661,5.398c-4.904,3.523-8.512,8.372-10.43,14.022l-0.446,1.313
	l0.446,1.314c1.918,5.649,5.525,10.498,10.429,14.021c4.916,3.532,10.679,5.399,16.661,5.399c5.985,0,11.746-1.867,16.663-5.399
	c4.904-3.523,8.511-8.372,10.429-14.021l0.446-1.314L135.391,86.397z M108.299,102.404c-9.227,0-17.542-6.003-20.493-14.693
	c2.951-8.689,11.267-14.693,20.494-14.693s17.543,6.004,20.494,14.693C125.843,96.401,117.527,102.404,108.299,102.404z"/>
<path display="none" fill="#FFFFFF" d="M108.639,87.314l5.03-8.294c-1.56-0.967-3.399-1.525-5.37-1.525
	c-5.641,0-10.216,4.574-10.216,10.216c0,5.643,4.575,10.217,10.216,10.217c5.644,0,10.217-4.574,10.217-10.217
	c0-0.062-0.003-0.122-0.005-0.183L108.639,87.314z"/>
<path display="none" fill="#FFFFFF" d="M74.426,130.795c-1.624,0-3.024-1.146-3.342-2.742l-11.191-56.17l-6.783,21.63
	c-0.445,1.421-1.763,2.388-3.252,2.388H35.823c-1.882,0-3.407-1.525-3.407-3.407s1.525-3.408,3.407-3.408h11.532l10.023-31.961
	c0.466-1.485,1.88-2.467,3.434-2.383c1.555,0.083,2.855,1.21,3.16,2.737l10.307,51.733l5.751-31.507
	c0.277-1.519,1.541-2.661,3.08-2.784c1.542-0.123,2.97,0.804,3.484,2.259l7.176,20.271l13.146-54.284
	c0.37-1.529,1.739-2.605,3.312-2.605c0.004,0,0.008,0,0.012,0c1.577,0.005,2.944,1.092,3.306,2.627l10.7,45.489h11.763
	c1.882,0,3.407,1.525,3.407,3.407s-1.525,3.408-3.407,3.408h-14.462c-1.582,0-2.955-1.089-3.317-2.628l-8.049-34.219l-12.484,51.552
	c-0.355,1.466-1.632,2.523-3.138,2.601c-1.504,0.075-2.884-0.844-3.387-2.266l-6.733-19.021L77.778,128
	c-0.294,1.609-1.689,2.782-3.325,2.796C74.444,130.795,74.435,130.795,74.426,130.795z"/>
<path display="none" fill="#FFFFFF" d="M57.972,109.87l40.213-40.212c2.503-5.668,4.021-12.475,4.021-18.362
	c0-12.924-7.304-16.527-16.312-16.527c-9.009,0-16.311,3.597-16.311,16.522c0,8.578,3.217,19.101,8.015,25.213
	c-0.044,0.482-0.101,0.966-0.188,1.445c-0.287,1.315-0.746,2.783-1.974,3.513c-1.378,0.817-2.906,1.337-4.412,1.864
	c-6.239,2.099-12.691,3.95-18.228,7.627c-2.881,1.896-4.831,5.375-5.907,8.605c-1.107,3.354-1.561,7.506-1.492,10.871h12.402
	L57.972,109.87z"/>
<path display="none" fill="#FFFFFF" d="M125.443,99.558c-1.077-3.23-3.028-6.489-5.907-8.384c-1.2-0.797-2.446-1.511-3.722-2.165
	l-21.42,21.42h32.541C127.004,107.064,126.55,102.912,125.443,99.558z"/>
<rect x="55.915" y="84.504" transform="matrix(0.7071 -0.7071 0.7071 0.7071 -38.832 93.0654)" display="none" fill="#FFFFFF" width="74.02" height="17.807"/>
<polygon display="none" fill="#FFFFFF" points="56.14,117.602 50.632,135.702 68.73,130.193 69.147,129.776 56.557,117.185 "/>
<path display="none" fill="#FFFFFF" d="M86.095,37.682c-17.518,0-31.718,14.207-31.718,31.721c0,10.72,5.327,20.2,13.472,25.939
	v42.675l18.246-18.251l18.248,18.251V95.342c8.148-5.739,13.476-15.22,13.476-25.939C117.818,51.889,103.614,37.682,86.095,37.682z"
	/>
<polygon display="none" fill="#FFFFFF" points="86,106.86 56.61,127.468 67.128,93.15 38.447,71.567 74.336,70.964 86,37.017 
	97.662,70.964 133.553,71.567 104.871,93.15 115.389,127.468 "/>
<path display="none" fill="#FFFFFF" d="M80.583,49.419l-1.75,7.905l27.719-8.758L85.107,28.941l-1.881,8.508
	c-11.405,0.648-22.625,5.307-31.321,14.005c-15.955,15.958-18.362,40.405-7.23,58.93l8.587-8.589
	c-6.771-13.668-4.481-30.726,6.891-42.094C65.898,53.951,73.103,50.526,80.583,49.419z"/>
<path display="none" fill="#FFFFFF" d="M127.325,60.713l-8.586,8.589c6.771,13.668,4.48,30.726-6.89,42.094
	c-5.748,5.75-12.951,9.174-20.432,10.282l1.751-7.905l-27.72,8.757l21.441,19.627l1.879-8.498
	c11.408-0.651,22.628-5.317,31.326-14.015C136.05,103.686,138.457,79.24,127.325,60.713z"/>
<path display="none" fill="#FFFFFF" d="M86,112c14.226,0,25.759-11.534,25.759-25.759c0-14.226-11.533-25.759-25.759-25.759
	c-14.225,0-25.759,11.533-25.759,25.759C60.241,100.465,71.775,112,86,112z M84.565,104.771c-2.817,0-4.734-2.073-4.734-4.839
	c0-2.87,1.97-4.838,4.734-4.838c2.871,0,4.731,1.968,4.785,4.838C89.351,102.698,87.489,104.771,84.565,104.771z M85.309,67.71
	c7.02,0,10.263,3.883,10.263,8.295c0,4.04-2.553,6.698-4.57,8.933c-1.916,2.18-2.767,4.254-2.713,6.647v0.958h-7.072l-0.054-1.385
	c-0.161-2.712,0.744-5.477,3.139-8.295c1.699-2.072,3.083-3.828,3.083-5.583c0-1.861-1.224-3.137-3.883-3.19
	c-1.753,0-3.88,0.639-5.265,1.596l-1.808-5.795C78.396,68.775,81.532,67.71,85.309,67.71z"/>
<path fill="#FFFFFF" d="M80.582,49.87l-1.749,7.906l27.719-8.758L85.108,29.392L83.228,37.9
	c-11.407,0.648-22.626,5.308-31.321,14.006c-15.957,15.956-18.362,40.404-7.231,58.929l8.587-8.587
	c-6.771-13.672-4.481-30.728,6.89-42.097C65.898,54.402,73.101,50.978,80.582,49.87z"/>
<path fill="#FFFFFF" d="M127.325,61.165l-8.586,8.588c6.771,13.671,4.48,30.727-6.89,42.096c-5.748,5.749-12.949,9.172-20.43,10.282
	l1.749-7.906l-27.721,8.757l21.441,19.626l1.88-8.497c11.408-0.65,22.628-5.318,31.325-14.016
	C136.051,104.137,138.456,79.69,127.325,61.165z"/>
</svg>
