<?xml version="1.0" encoding="utf-8"?>
<!-- Generator: Adobe Illustrator 15.0.0, SVG Export Plug-In  -->
<!DOCTYPE svg PUBLIC "-//W3C//DTD SVG 1.1//EN" "http://www.w3.org/Graphics/SVG/1.1/DTD/svg11.dtd" [
	<!ENTITY ns_flows "http://ns.adobe.com/Flows/1.0/">
]>
<svg version="1.1"
	 xmlns="http://www.w3.org/2000/svg" xmlns:xlink="http://www.w3.org/1999/xlink" xmlns:a="http://ns.adobe.com/AdobeSVGViewerExtensions/3.0/"
	 x="0px" y="0px" width="172px" height="172px" viewBox="0 0 172 172" enable-background="new 0 0 172 172" xml:space="preserve">
<defs>
</defs>
<path fill="#FFFFFF" d="M86,172C38.578,172,0,133.42,0,86C0,38.58,38.578,0,86,0c47.42,0,86,38.58,86,86
	C172,133.42,133.42,172,86,172z M86,8C42.99,8,8,42.991,8,86c0,43.01,34.99,78,78,78c43.008,0,78-34.99,78-78
	C164,42.991,129.008,8,86,8z"/>
<path display="none" fill="#FFFFFF" d="M59.283,70.851c0-6.271-5.084-11.354-11.355-11.354c-6.27,0-11.354,5.083-11.354,11.354l0,0
	v57.508h22.709V70.851L59.283,70.851z"/>
<path display="none" fill="#FFFFFF" d="M61.233,83.805c0,0.892-0.731,1.621-1.624,1.621H36.246c-0.893,0-1.621-0.729-1.621-1.621
	V77.32c0-0.892,0.729-1.621,1.621-1.621h23.363c0.893,0,1.624,0.729,1.624,1.621V83.805z"/>
<path display="none" fill="#FFFFFF" d="M61.233,98.11c0,0.892-0.731,1.623-1.624,1.623H36.246c-0.893,0-1.621-0.731-1.621-1.623
	v-6.484c0-0.892,0.729-1.621,1.621-1.621h23.363c0.893,0,1.624,0.729,1.624,1.621V98.11z"/>
<path display="none" fill="#FFFFFF" d="M61.233,112.416c0,0.892-0.731,1.623-1.624,1.623H36.246c-0.893,0-1.621-0.731-1.621-1.623
	v-6.484c0-0.893,0.729-1.622,1.621-1.622h23.363c0.893,0,1.624,0.729,1.624,1.622V112.416z"/>
<rect x="69.934" y="31.642" display="none" fill="#FFFFFF" width="10.014" height="91.896"/>
<rect x="68.789" y="43.157" display="none" fill="#FFFFFF" width="12.304" height="7.726"/>
<rect x="68.789" y="57.461" display="none" fill="#FFFFFF" width="12.304" height="7.726"/>
<rect x="68.789" y="71.767" display="none" fill="#FFFFFF" width="12.304" height="7.726"/>
<path display="none" fill="#FFFFFF" d="M90.921,128.359h46.454c0,0-11.81-31.531-7.682-58.491H89.001
	c4.128,26.96-7.681,58.491-7.681,58.491h52.215"/>
<path fill="#FFFFFF" d="M67.065,63.369l9.188,6.071l1.669,1.105l2.4,6.216c0.023,0.04,0.057,0.09,0.084,0.128l8.057,8.058
	c0.967-0.44,2.029-0.671,3.127-0.671c0.915,0,1.806,0.16,2.639,0.469l0.99-0.992c0.006-0.688,0.025-1.537,0.091-2.495
	c-0.811-0.979-1.196-2.318-1.461-3.533c-0.155-0.862-0.249-1.745-0.301-2.614c5.607-7.67,9.325-20.188,9.325-30.448
	c0-16.017-9.049-20.48-20.212-20.48c-11.162,0-20.209,4.456-20.209,20.474c0,5.605,1.107,11.879,3.026,17.668L67.065,63.369z"/>
<path fill="#FFFFFF" d="M131.669,104.467c-0.64-1.915-1.527-3.839-2.672-5.583c-4.771,2.968-11.104,3.556-15.033,3.592l-0.523,0.521
	l14.94,14.94h5.137C133.603,113.767,133.04,108.622,131.669,104.467z"/>
<path fill="#FFFFFF" d="M76.452,102.521c-0.309-0.832-0.472-1.725-0.472-2.639c0-1.098,0.234-2.158,0.674-3.126l-8.091-8.09
	c-0.067-0.053-0.175-0.124-0.249-0.167c0,0-4.223-1.796-4.225-1.797l-1.688-0.717l-0.572-0.833
	c-6.969,2.298-14.029,4.565-20.181,8.651c-3.57,2.35-5.985,6.66-7.318,10.663c-1.373,4.154-1.934,9.3-1.849,13.471h28.554
	L76.452,102.521z"/>
<path fill="#FFFFFF" d="M100.684,87.172c0.493-0.493,0.868-1.466,0.839-2.163c0,0-0.454-10.228,3.809-14.491
	c4.34-4.34,14.787-3.729,14.787-3.729c0.696,0.039,0.982,0.354,0.64,0.696c-0.343,0.343-10.479,10.479-10.479,10.479
	c-0.494,0.491-0.747,1.446-0.567,2.119l1.344,5.016c0.181,0.673,0.88,1.37,1.553,1.55l5.016,1.345
	c0.67,0.181,1.626-0.074,2.12-0.567c0,0,10.134-10.136,10.479-10.479c0.34-0.343,0.654-0.054,0.694,0.641
	c0,0,0.61,10.447-3.729,14.787c-4.263,4.263-14.495,3.809-14.495,3.809c-0.694-0.03-1.665,0.349-2.16,0.839l-4.523,4.528
	c-1.346-0.602-3.191-1.588-4.128-2.526c-1.144-1.141-2.356-3.62-2.853-4.912c-0.409-1.068-1.258-2.379-2.067-3.189l-0.015-0.016
	L100.684,87.172z M85.817,107.321c-1.065-0.406-2.376-1.258-3.186-2.064l-0.015-0.017l-23.781,23.78
	c-0.493,0.489-0.493,1.298,0,1.79l8.063,8.061c0.491,0.493,1.296,0.493,1.79,0l24.568-24.568c-0.599-1.345-1.586-3.19-2.526-4.131
	C89.593,109.032,87.113,107.819,85.817,107.321z M107.739,106.179c-0.491-0.491-1.427-1.099-2.078-1.347
	c0,0-3.962-1.511-6.019-3.569c-2.058-2.06-3.572-6.021-3.572-6.021c-0.247-0.65-0.854-1.586-1.347-2.078l-2.239-2.241
	c-0.493-0.491-1.297-0.491-1.793,0l-1.669,1.672c-0.491,0.492-1.299,0.492-1.793,0L75.865,81.231
	c-0.494-0.493-1.102-1.428-1.351-2.077l-1.275-3.298c-0.251-0.65-0.456-1.181-0.456-1.181s-0.475-0.315-1.056-0.699l-8.129-5.369
	c-0.579-0.384-1.058-0.698-1.058-0.698s-0.401,0.4-0.895,0.894l-1.136,1.137c-0.491,0.494-0.895,0.896-0.895,0.896
	s0.322,0.467,0.714,1.044l5.492,7.995c0.395,0.575,0.718,1.044,0.718,1.044s0.525,0.223,1.167,0.496l3.173,1.35
	c0.64,0.274,1.565,0.9,2.06,1.395l11.364,11.363c0.491,0.493,0.491,1.301,0,1.791l-1.672,1.674c-0.492,0.492-0.492,1.299,0,1.79
	l2.242,2.238c0.491,0.494,1.427,1.1,2.077,1.348c0,0,3.96,1.512,6.021,3.57c2.057,2.062,3.569,6.021,3.569,6.021
	c0.249,0.652,0.854,1.585,1.349,2.079l21.69,21.688c0.491,0.494,1.297,0.494,1.79,0l8.06-8.06c0.493-0.492,0.493-1.298,0-1.791
	L107.739,106.179z"/>
</svg>
