<?xml version="1.0" encoding="utf-8"?>
<!-- Generator: Adobe Illustrator 15.0.0, SVG Export Plug-In  -->
<!DOCTYPE svg PUBLIC "-//W3C//DTD SVG 1.1//EN" "http://www.w3.org/Graphics/SVG/1.1/DTD/svg11.dtd" [
	<!ENTITY ns_flows "http://ns.adobe.com/Flows/1.0/">
]>
<svg version="1.1"
	 xmlns="http://www.w3.org/2000/svg" xmlns:xlink="http://www.w3.org/1999/xlink" xmlns:a="http://ns.adobe.com/AdobeSVGViewerExtensions/3.0/"
	 x="0px" y="0px" width="172px" height="172px" viewBox="0 0 172 172" enable-background="new 0 0 172 172" xml:space="preserve">
<defs>
</defs>
<path fill="#FFFFFF" d="M86,172C38.578,172,0,133.42,0,86C0,38.58,38.578,0,86,0c47.42,0,86,38.58,86,86
	C172,133.42,133.42,172,86,172z M86,8C42.99,8,8,42.991,8,86c0,43.01,34.99,78,78,78c43.008,0,78-34.99,78-78
	C164,42.991,129.008,8,86,8z"/>
<path display="none" fill="#FFFFFF" d="M59.283,70.851c0-6.271-5.084-11.354-11.355-11.354c-6.27,0-11.354,5.083-11.354,11.354l0,0
	v57.508h22.709V70.851L59.283,70.851z"/>
<path display="none" fill="#FFFFFF" d="M61.233,83.805c0,0.892-0.731,1.621-1.624,1.621H36.246c-0.893,0-1.621-0.729-1.621-1.621
	V77.32c0-0.892,0.729-1.621,1.621-1.621h23.363c0.893,0,1.624,0.729,1.624,1.621V83.805z"/>
<path display="none" fill="#FFFFFF" d="M61.233,98.11c0,0.892-0.731,1.623-1.624,1.623H36.246c-0.893,0-1.621-0.731-1.621-1.623
	v-6.484c0-0.892,0.729-1.621,1.621-1.621h23.363c0.893,0,1.624,0.729,1.624,1.621V98.11z"/>
<path display="none" fill="#FFFFFF" d="M61.233,112.416c0,0.892-0.731,1.623-1.624,1.623H36.246c-0.893,0-1.621-0.731-1.621-1.623
	v-6.484c0-0.893,0.729-1.622,1.621-1.622h23.363c0.893,0,1.624,0.729,1.624,1.622V112.416z"/>
<rect x="69.934" y="31.642" display="none" fill="#FFFFFF" width="10.014" height="91.896"/>
<rect x="68.789" y="43.157" display="none" fill="#FFFFFF" width="12.304" height="7.726"/>
<rect x="68.789" y="57.461" display="none" fill="#FFFFFF" width="12.304" height="7.726"/>
<rect x="68.789" y="71.767" display="none" fill="#FFFFFF" width="12.304" height="7.726"/>
<path display="none" fill="#FFFFFF" d="M90.921,128.359h46.454c0,0-11.81-31.531-7.682-58.491H89.001
	c4.128,26.96-7.681,58.491-7.681,58.491h52.215"/>
<path display="none" fill="#FFFFFF" d="M67.065,63.369l9.188,6.071l1.669,1.105l2.4,6.216c0.023,0.04,0.057,0.09,0.084,0.128
	l8.057,8.058c0.967-0.44,2.029-0.671,3.127-0.671c0.915,0,1.806,0.16,2.639,0.469l0.99-0.992c0.006-0.688,0.025-1.537,0.091-2.495
	c-0.811-0.979-1.196-2.318-1.461-3.533c-0.155-0.862-0.249-1.745-0.301-2.614c5.607-7.67,9.325-20.188,9.325-30.448
	c0-16.017-9.049-20.48-20.212-20.48c-11.162,0-20.209,4.456-20.209,20.474c0,5.605,1.107,11.879,3.026,17.668L67.065,63.369z"/>
<path display="none" fill="#FFFFFF" d="M131.669,104.467c-0.64-1.915-1.527-3.839-2.672-5.583
	c-4.771,2.968-11.104,3.556-15.033,3.592l-0.523,0.521l14.94,14.94h5.137C133.603,113.767,133.04,108.622,131.669,104.467z"/>
<path display="none" fill="#FFFFFF" d="M76.452,102.521c-0.309-0.832-0.472-1.725-0.472-2.639c0-1.098,0.234-2.158,0.674-3.126
	l-8.091-8.09c-0.067-0.053-0.175-0.124-0.249-0.167c0,0-4.223-1.796-4.225-1.797l-1.688-0.717l-0.572-0.833
	c-6.969,2.298-14.029,4.565-20.181,8.651c-3.57,2.35-5.985,6.66-7.318,10.663c-1.373,4.154-1.934,9.3-1.849,13.471h28.554
	L76.452,102.521z"/>
<path display="none" fill="#FFFFFF" d="M100.684,87.172c0.493-0.493,0.868-1.466,0.839-2.163c0,0-0.454-10.228,3.809-14.491
	c4.34-4.34,14.787-3.729,14.787-3.729c0.696,0.039,0.982,0.354,0.64,0.696c-0.343,0.343-10.479,10.479-10.479,10.479
	c-0.494,0.491-0.747,1.446-0.567,2.119l1.344,5.016c0.181,0.673,0.88,1.37,1.553,1.55l5.016,1.345
	c0.67,0.181,1.626-0.074,2.12-0.567c0,0,10.134-10.136,10.479-10.479c0.34-0.343,0.654-0.054,0.694,0.641
	c0,0,0.61,10.447-3.729,14.787c-4.263,4.263-14.495,3.809-14.495,3.809c-0.694-0.03-1.665,0.349-2.16,0.839l-4.523,4.528
	c-1.346-0.602-3.191-1.588-4.128-2.526c-1.144-1.141-2.356-3.62-2.853-4.912c-0.409-1.068-1.258-2.379-2.067-3.189l-0.015-0.016
	L100.684,87.172z M85.817,107.321c-1.065-0.406-2.376-1.258-3.186-2.064l-0.015-0.017l-23.781,23.78
	c-0.493,0.489-0.493,1.298,0,1.79l8.063,8.061c0.491,0.493,1.296,0.493,1.79,0l24.568-24.568c-0.599-1.345-1.586-3.19-2.526-4.131
	C89.593,109.032,87.113,107.819,85.817,107.321z M107.739,106.179c-0.491-0.491-1.427-1.099-2.078-1.347
	c0,0-3.962-1.511-6.019-3.569c-2.058-2.06-3.572-6.021-3.572-6.021c-0.247-0.65-0.854-1.586-1.347-2.078l-2.239-2.241
	c-0.493-0.491-1.297-0.491-1.793,0l-1.669,1.672c-0.491,0.492-1.299,0.492-1.793,0L75.865,81.231
	c-0.494-0.493-1.102-1.428-1.351-2.077l-1.275-3.298c-0.251-0.65-0.456-1.181-0.456-1.181s-0.475-0.315-1.056-0.699l-8.129-5.369
	c-0.579-0.384-1.058-0.698-1.058-0.698s-0.401,0.4-0.895,0.894l-1.136,1.137c-0.491,0.494-0.895,0.896-0.895,0.896
	s0.322,0.467,0.714,1.044l5.492,7.995c0.395,0.575,0.718,1.044,0.718,1.044s0.525,0.223,1.167,0.496l3.173,1.35
	c0.64,0.274,1.565,0.9,2.06,1.395l11.364,11.363c0.491,0.493,0.491,1.301,0,1.791l-1.672,1.674c-0.492,0.492-0.492,1.299,0,1.79
	l2.242,2.238c0.491,0.494,1.427,1.1,2.077,1.348c0,0,3.96,1.512,6.021,3.57c2.057,2.062,3.569,6.021,3.569,6.021
	c0.249,0.652,0.854,1.585,1.349,2.079l21.69,21.688c0.491,0.494,1.297,0.494,1.79,0l8.06-8.06c0.493-0.492,0.493-1.298,0-1.791
	L107.739,106.179z"/>
<path display="none" fill="#FFFFFF" d="M79.711,43.738l-2.032,9.179l32.185-10.166L84.965,19.961L82.78,29.84
	c-13.244,0.752-26.271,6.163-36.368,16.261c-18.527,18.528-21.32,46.915-8.395,68.424l9.969-9.971
	c-7.86-15.873-5.203-35.677,7.999-48.88C62.659,49,71.021,45.026,79.711,43.738z"/>
<path display="none" fill="#FFFFFF" d="M133.983,56.853l-9.97,9.971c7.86,15.873,5.203,35.677-7.999,48.88
	c-6.674,6.674-15.035,10.648-23.722,11.938l2.03-9.18l-32.187,10.167l24.896,22.788l2.184-9.866
	c13.245-0.755,26.272-6.176,36.371-16.273C144.115,106.749,146.908,78.365,133.983,56.853z"/>
<polygon display="none" fill="#FFFFFF" points="60.688,49.342 115.251,49.342 115.251,40.003 51.349,40.003 51.349,131.997 
	115.251,131.997 115.251,122.659 60.688,122.659 "/>
<polygon display="none" fill="#FFFFFF" points="138.673,86.002 98.354,62.721 98.354,81.332 66.113,81.332 66.113,90.669 
	98.354,90.669 98.354,109.279 "/>
<polygon display="none" fill="#FFFFFF" points="31.151,65.785 31.151,106.213 85.604,106.213 85.604,140.562 148.948,86 
	85.604,31.437 85.604,65.785 "/>
<polygon display="none" fill="#FFFFFF" points="142.949,106.214 142.949,65.786 88.497,65.786 88.497,31.437 25.152,86 
	88.497,140.562 88.497,106.214 "/>
<rect x="51.427" y="64.388" transform="matrix(0.7071 -0.7071 0.7071 0.7071 -26.594 90.3306)" display="none" fill="#FFFFFF" width="88.63" height="25.759"/>
<polygon display="none" fill="#FFFFFF" points="52.948,101.845 43.343,129.667 71.165,120.061 62.058,110.953 "/>
<path display="none" fill="#FFFFFF" d="M87.016,84.812l15.082-24.87c-4.678-2.896-10.191-4.572-16.099-4.572
	c-16.915,0-30.63,13.714-30.63,30.63s13.715,30.63,30.63,30.63c16.917,0,30.63-13.714,30.63-30.63c0-0.186-0.011-0.366-0.015-0.55
	L87.016,84.812z"/>
<path display="none" fill="#FFFFFF" d="M154.403,85.543h-0.279c-8.765-29.343-35.93-50.746-68.123-50.746
	c-32.195,0-59.36,21.403-68.127,50.746h-0.277c0.043,0.153,0.095,0.303,0.139,0.456c-0.044,0.153-0.096,0.303-0.139,0.456h0.277
	c8.767,29.343,35.932,50.746,68.125,50.746c32.195,0,59.36-21.403,68.125-50.746h0.279c-0.045-0.153-0.096-0.303-0.141-0.456
	C154.308,85.846,154.358,85.697,154.403,85.543z M85.999,128.09c-26.433,0-50.254-17.197-58.707-42.091
	c8.455-24.894,32.274-42.091,58.709-42.091c26.433,0,50.254,17.197,58.707,42.091C136.255,110.893,112.434,128.09,85.999,128.09z"/>
<polygon display="none" fill="#FFFFFF" points="139.99,50.233 121.768,32.01 86,67.777 50.232,32.01 32.01,50.233 67.777,86 
	32.01,121.768 50.232,139.991 86,104.222 121.768,139.991 139.99,121.768 104.223,86 "/>
<path display="none" fill="#FFFFFF" d="M139.758,97.956v20.413c0,2.447-2.004,4.447-4.45,4.447H57.267c-2.448,0-4.45-2-4.45-4.447
	V97.956c0-2.445,1.417-5.864,3.146-7.596L67.29,79.035c1.729-1.731,5.149-3.146,7.596-3.146h14.528V63.16
	c0-13.576-11.045-24.624-24.625-24.624c-13.577,0-24.623,11.048-24.623,24.624v19.121h3.198c0.666,0,1.601,0.387,2.073,0.858
	l3.092,3.093c0.473,0.473,0.856,1.403,0.856,2.072v5.572c0,0.665-0.545,1.213-1.213,1.213H26.868c-0.667,0-1.215-0.548-1.215-1.213
	v-5.572c0-0.669,0.389-1.6,0.86-2.072l3.092-3.093c0.473-0.472,1.404-0.858,2.073-0.858h3.132V63.16
	c0-16.528,13.449-29.979,29.979-29.979c16.53,0,29.979,13.45,29.979,29.979v12.729h22.924c2.447,0,5.862,1.415,7.592,3.146
	l11.33,11.325C138.344,92.091,139.758,95.51,139.758,97.956z M102.403,98.543v12.115h25.197V98.543H102.403z M64.974,110.659h12.797
	V98.543H64.974V110.659z"/>
<path display="none" fill="#FFFFFF" d="M130.525,61.219v11.157h-15.754V57.005h11.54L130.525,61.219z M101.968,40.126H57.207v32.25
	h4.392V44.517h38.55l5.84,5.842v22.018h4.391V48.54L101.968,40.126z M42.786,57.005l-4.517,4.517v62.703l14.545-47.302V57.005
	H42.786z M130.547,124.154l12.73-41.4l-5.987-5.985H57.457l-14.571,47.386H130.547z M100.577,67.984H67.202v4.393h33.375V67.984z
	 M100.577,59.201H67.202v4.393h33.375V59.201z M100.577,50.418H67.202v4.392h33.375V50.418z"/>
<path display="none" fill="#FFFFFF" d="M42.729,38.797v9.26v85.145h85.04V48.057v-9.26H42.729z M123.614,129.046h-76.73V48.057
	h76.73V129.046z M116.551,63.292H53.946v-8.309h62.604V63.292z M116.551,108.974H53.946v-8.31h62.604V108.974z M116.551,123.26
	H53.946v-8.31h62.604V123.26z M73.789,81.308c0,5.48-4.442,9.921-9.921,9.921c-5.479,0-9.922-4.44-9.922-9.921
	c0-5.479,4.442-9.919,9.922-9.919C69.347,71.389,73.789,75.83,73.789,81.308z M116.551,91.23H96.708V71.388h19.843V91.23z"/>
<path display="none" fill="#FFFFFF" d="M58.492,73.311h37.513v45.384H58.492V73.311z M66.717,70.275h32.578v41.967h4.936V66.858
	H66.717V70.275z M74.943,60.405v3.416h32.577v41.968h4.935V60.405H74.943z M138.775,82.048
	c-1.898-27.363-24.854-48.797-52.261-48.797c-1.215,0-2.447,0.043-3.664,0.127c-10.656,0.739-20.688,4.636-29.011,11.269
	c-7.083,5.645-12.528,12.927-15.912,21.227l-6.682-3.556l0.896,25.821l21.911-13.685l-10.317-5.49
	C50.178,52.44,65.417,41.14,83.303,39.899c1.066-0.074,2.146-0.111,3.21-0.111c23.988,0,44.081,18.762,45.742,42.712
	c0.848,12.208-3.123,24.028-11.179,33.285s-19.215,14.821-31.422,15.668l-1.414,0.099l0.451,6.52l1.414-0.098
	c13.948-0.968,26.697-7.324,35.899-17.898C135.208,109.5,139.743,95.996,138.775,82.048z"/>
<rect x="49.93" y="36.306" display="none" fill="#FFFFFF" width="15.497" height="98.114"/>
<rect x="111.919" y="101.715" display="none" fill="#FFFFFF" width="15.497" height="32.705"/>
<rect x="80.924" y="69.012" display="none" fill="#FFFFFF" width="15.498" height="65.408"/>
<polygon display="none" fill="#FFFFFF" points="143.537,80.35 92.992,80.35 92.992,29.804 81.57,29.804 81.57,80.35 31.023,80.35 
	31.023,91.772 81.57,91.772 81.57,142.318 92.992,142.318 92.992,91.772 143.537,91.772 "/>
<path display="none" fill="#FFFFFF" d="M139.551,78.817l-2.288-0.813c-9.964-3.543-14.4-14.257-9.86-23.806l1.042-2.193
	c4.539-9.552,0.44-13.65-9.11-9.11l-2.192,1.042c-9.551,4.541-20.264,0.104-23.808-9.861l-0.813-2.288
	c-3.543-9.964-9.341-9.964-12.885,0l-0.813,2.288c-3.543,9.965-14.257,14.402-23.806,9.861l-2.193-1.042
	c-9.551-4.54-13.65-0.441-9.11,9.11l1.042,2.191c4.541,9.551,0.104,20.265-9.86,23.808l-2.289,0.813
	c-9.962,3.543-9.962,9.342,0,12.885l2.289,0.813c9.964,3.543,14.401,14.257,9.86,23.806l-1.042,2.193
	c-4.54,9.552-0.44,13.65,9.11,9.11l2.193-1.042c9.549-4.541,20.263-0.104,23.806,9.861l0.813,2.288
	c3.544,9.962,9.342,9.962,12.885,0l0.813-2.288c3.544-9.965,14.257-14.402,23.808-9.861l2.192,1.042
	c9.551,4.54,13.649,0.441,9.11-9.11l-1.042-2.193c-4.54-9.549-0.104-20.263,9.86-23.806l2.288-0.813
	C149.515,88.159,149.515,82.36,139.551,78.817z M86.078,123.887c-21.333,0-38.628-17.296-38.628-38.628
	c0-21.334,17.295-38.628,38.628-38.628c21.334,0,38.628,17.294,38.628,38.628C124.706,106.591,107.412,123.887,86.078,123.887z"/>
<polygon display="none" fill="#FFFFFF" points="134.449,54.624 118.471,38.646 86.916,70.202 55.36,38.646 39.383,54.624 
	70.938,86.179 39.383,117.735 55.36,133.712 86.916,102.157 118.471,133.712 134.449,117.735 102.895,86.179 "/>
<path display="none" fill="#FFFFFF" d="M38.539,117.366c0-1.556,1.271-2.828,2.828-2.828h92.097c1.557,0,2.828,1.272,2.828,2.828
	v7.067c0,1.556-1.271,2.829-2.828,2.829H41.367c-1.557,0-2.828-1.273-2.828-2.829V117.366z"/>
<path display="none" fill="#FFFFFF" d="M123.585,46.167H47.247c-1.288,0-2.344,1.056-2.344,2.344v76.338
	c0,1.288,1.056,2.344,2.344,2.344h76.338c1.288,0,2.344-1.056,2.344-2.344V48.51C125.929,47.222,124.873,46.167,123.585,46.167z
	 M115.382,115.474c0,0.645-0.527,1.171-1.171,1.171h-57.59c-0.645,0-1.171-0.526-1.171-1.171v-57.59
	c0-0.645,0.526-1.171,1.171-1.171h57.59c0.644,0,1.171,0.526,1.171,1.171V115.474z"/>
<path display="none" fill="#FFFFFF" d="M128.53,42.667h-4.329c-0.657,3.224-3.509,5.649-6.929,5.649s-6.271-2.426-6.928-5.649
	h-6.411c-0.656,3.224-3.508,5.649-6.928,5.649s-6.272-2.426-6.93-5.649h-6.409c-0.657,3.224-3.51,5.649-6.93,5.649
	s-6.271-2.426-6.928-5.649h-6.411c-0.656,3.224-3.508,5.649-6.928,5.649s-6.271-2.426-6.929-5.649h-4.329
	c-1.594,0-2.886,1.527-2.886,3.412v82.262c0,1.886,1.292,3.414,2.886,3.414h83.317c1.594,0,2.886-1.528,2.886-3.414V46.08
	C131.416,44.195,130.124,42.667,128.53,42.667z M124.737,122.313c0,1.366-1.098,2.474-2.453,2.474H51.459
	c-1.355,0-2.453-1.107-2.453-2.474V62.714c0-1.365,1.098-2.471,2.453-2.471h70.825c1.355,0,2.453,1.105,2.453,2.471V122.313z
	 M55.149,91.065l8.346-8.343L81,100.226l29.249-29.248l8.345,8.344L81,116.914L55.149,91.065z"/>
<path display="none" fill="#FFFFFF" d="M100.058,34.328c-21.706,0-39.367,17.661-39.367,39.369
	c0,21.706,17.661,39.367,39.367,39.367c21.707,0,39.368-17.661,39.368-39.367C139.426,51.989,121.765,34.328,100.058,34.328z
	 M100.058,104.729c-17.11,0-31.032-13.922-31.032-31.032c0-17.112,13.922-31.034,31.032-31.034
	c17.111,0,31.033,13.922,31.033,31.034C131.091,90.807,117.169,104.729,100.058,104.729z"/>
<path display="none" fill="#FFFFFF" d="M65.466,96.499l-26.189,26.19l11.788,11.788l26.19-26.189
	C72.576,105.193,68.561,101.177,65.466,96.499z"/>
<polygon display="none" fill="#FFFFFF" points="84.916,142.679 133.311,95.738 36.521,95.738 "/>
<polygon display="none" fill="#FFFFFF" points="84.916,28.679 36.521,75.621 133.311,75.621 "/>
<path fill="#FFFFFF" d="M78.992,89.014v-0.301c5.761-2.086,11.821-7.942,11.821-16.385c0-6.161-2.186-10.928-6.261-14.106
	c-4.768-3.774-11.718-5.265-21.652-5.265c-8.144,0-15.297,0.596-20.164,1.39v66.055h14.999V94.078h4.472
	c6.257,0.101,9.136,2.289,11.021,10.731c1.893,8.24,3.578,13.604,4.571,15.593h15.496c-1.293-2.582-3.276-11.321-5.364-18.974
	C86.242,95.274,83.66,90.899,78.992,89.014z M63.693,83.153h-5.958V64.778c1.093-0.299,3.179-0.499,6.854-0.499
	c6.953,0,11.124,3.179,11.124,9.239C75.714,79.381,71.242,83.153,63.693,83.153z"/>
<polygon fill="#FFFFFF" points="118.66,80.196 118.66,70.743 91.051,86.678 118.66,102.621 118.66,92.985 137.517,92.985 
	137.517,80.196 "/>
</svg>
