<?xml version="1.0" encoding="utf-8"?>
<!-- Generator: Adobe Illustrator 15.0.0, SVG Export Plug-In  -->
<!DOCTYPE svg PUBLIC "-//W3C//DTD SVG 1.1//EN" "http://www.w3.org/Graphics/SVG/1.1/DTD/svg11.dtd" [
	<!ENTITY ns_flows "http://ns.adobe.com/Flows/1.0/">
]>
<svg version="1.1"
	 xmlns="http://www.w3.org/2000/svg" xmlns:xlink="http://www.w3.org/1999/xlink" xmlns:a="http://ns.adobe.com/AdobeSVGViewerExtensions/3.0/"
	 x="0px" y="0px" width="100px" height="100px" viewBox="0 0 100 100" enable-background="new 0 0 100 100" xml:space="preserve">
<defs>
</defs>
<path fill="#0A812E" d="M85.827,0H14.174C6.346,0,0,6.346,0,14.174v17.183v54.471C0,93.654,6.346,100,14.174,100h71.652
	C93.655,100,100,93.654,100,85.827V31.356V14.174C100,6.346,93.655,0,85.827,0z M95.762,82.791c0,7.164-5.807,12.972-12.971,12.972
	H17.209c-7.164,0-12.972-5.808-12.972-12.972V26.356h91.525V82.791z"/>
<path fill="#0A812E" d="M63.639,74.936c3.984-3.424,6.91-8.964,6.91-16.993c0-7.407-2.738-12.574-7.096-15.811
	c-3.984-2.988-9.213-4.481-17.242-4.481c-4.73,0-9.275,0.373-12.76,0.934v41.145c2.303,0.311,5.85,0.622,10.768,0.622
	C52.436,80.351,59.221,78.607,63.639,74.936z M42.913,45.307c0.809-0.188,2.24-0.374,4.295-0.374c8.217,0,13.32,4.606,13.32,13.32
	c0,10.022-5.664,14.753-14.316,14.69c-1.121,0-2.49,0-3.299-0.187V45.307z"/>
</svg>
