<?xml version="1.0" encoding="utf-8"?>
<!-- Generator: Adobe Illustrator 15.0.0, SVG Export Plug-In  -->
<!DOCTYPE svg PUBLIC "-//W3C//DTD SVG 1.1//EN" "http://www.w3.org/Graphics/SVG/1.1/DTD/svg11.dtd" [
	<!ENTITY ns_flows "http://ns.adobe.com/Flows/1.0/">
]>
<svg version="1.1"
	 xmlns="http://www.w3.org/2000/svg" xmlns:xlink="http://www.w3.org/1999/xlink" xmlns:a="http://ns.adobe.com/AdobeSVGViewerExtensions/3.0/"
	 x="0px" y="0px" width="100px" height="100px" viewBox="0 0 100 100" enable-background="new 0 0 100 100" xml:space="preserve">
<defs>
</defs>
<path fill="#636363" d="M85.827,0H14.174C6.346,0,0,6.346,0,14.174v17.183v54.471C0,93.654,6.346,100,14.174,100h71.652
	C93.655,100,100,93.654,100,85.827V31.356V14.174C100,6.346,93.655,0,85.827,0z M95.762,82.791c0,7.164-5.807,12.972-12.971,12.972
	H17.209c-7.164,0-12.972-5.808-12.972-12.972V26.356h91.525V82.791z"/>
<g>
	<path fill="#636363" d="M77.307,63.64c1.369,0,2.489-1.224,2.489-2.719s-1.12-2.719-2.489-2.719s-2.6-0.702-2.734-1.56
		c-0.134-0.857,0.33-3.48,1.586-4.021c1.256-0.541,1.801-2.108,1.21-3.481c-0.591-1.374-2.104-2.055-3.36-1.514
		c-1.258,0.541-2.605,0.472-2.994-0.153c-0.389-0.626-0.752-2.97,0.217-3.938s0.896-2.626-0.16-3.684
		c-1.058-1.058-2.716-1.13-3.686-0.162c-0.969,0.969-2.33,1.346-3.024,0.839c-0.694-0.507-2.239-2.701-1.732-3.973
		c0.507-1.271-0.216-2.764-1.605-3.317c-1.39-0.554-2.94,0.034-3.446,1.305c-0.507,1.271-1.503,2.175-2.215,2.009
		c-0.713-0.166-2.642-1.569-2.642-2.938s-1.224-2.49-2.72-2.49s-2.72,1.121-2.72,2.49s-0.701,2.6-1.56,2.735
		c-0.857,0.134-3.479-0.331-4.02-1.587c-0.541-1.256-2.107-1.801-3.481-1.209c-1.374,0.591-2.056,2.104-1.515,3.36
		c0.542,1.257,0.473,2.605-0.152,2.994c-0.626,0.39-2.97,0.752-3.938-0.217s-2.626-0.896-3.684,0.162s-1.131,2.715-0.162,3.684
		s1.346,2.33,0.839,3.025c-0.508,0.695-2.701,2.238-3.973,1.732c-1.271-0.507-2.765,0.216-3.318,1.605
		c-0.553,1.39,0.034,2.94,1.305,3.447s2.175,1.503,2.009,2.215s-1.567,2.643-2.938,2.643s-2.49,1.224-2.49,2.719
		s1.12,2.719,2.49,2.719s2.601,0.702,2.735,1.559c0.134,0.857-0.332,3.48-1.588,4.021c-1.256,0.541-1.801,2.107-1.209,3.48
		s2.104,2.055,3.361,1.514c1.257-0.541,2.604-0.472,2.994,0.154c0.39,0.625,0.751,2.969-0.218,3.938s-0.896,2.626,0.162,3.684
		s2.715,1.13,3.684,0.162s2.329-1.346,3.024-0.839c0.695,0.507,2.238,2.701,1.732,3.973s0.217,2.764,1.605,3.317
		c1.389,0.554,2.939-0.034,3.445-1.305c0.507-1.271,1.503-2.175,2.215-2.009c0.713,0.166,2.644,1.569,2.644,2.938
		s1.224,2.49,2.72,2.49s2.72-1.121,2.72-2.49s0.701-2.6,1.558-2.735c0.857-0.134,3.479,0.331,4.021,1.587
		c0.541,1.256,2.107,1.801,3.48,1.209c1.373-0.591,2.055-2.104,1.514-3.36c-0.542-1.257-0.473-2.605,0.154-2.994
		c0.626-0.39,2.969-0.752,3.938,0.217c0.97,0.969,2.628,0.896,3.686-0.162c1.057-1.058,1.129-2.715,0.16-3.684
		s-1.347-2.33-0.84-3.025c0.508-0.695,2.703-2.238,3.975-1.732c1.272,0.507,2.766-0.216,3.318-1.605s-0.034-2.94-1.306-3.447
		s-2.176-1.503-2.01-2.215S75.938,63.64,77.307,63.64z M50,81.276c-11.244,0-20.356-9.114-20.356-20.356S38.756,40.563,50,40.563
		c11.242,0,20.356,9.114,20.356,20.356S61.243,81.276,50,81.276z M63.058,60.92c0,7.212-5.847,13.059-13.058,13.059
		c-7.213,0-13.06-5.846-13.06-13.059c0-7.212,5.847-13.059,13.06-13.059C57.211,47.861,63.058,53.708,63.058,60.92z"/>
</g>
</svg>
