<?xml version="1.0" encoding="utf-8"?>
<!-- Generator: Adobe Illustrator 15.0.0, SVG Export Plug-In  -->
<!DOCTYPE svg PUBLIC "-//W3C//DTD SVG 1.1//EN" "http://www.w3.org/Graphics/SVG/1.1/DTD/svg11.dtd" [
	<!ENTITY ns_flows "http://ns.adobe.com/Flows/1.0/">
]>
<svg version="1.1"
	 xmlns="http://www.w3.org/2000/svg" xmlns:xlink="http://www.w3.org/1999/xlink" xmlns:a="http://ns.adobe.com/AdobeSVGViewerExtensions/3.0/"
	 x="0px" y="0px" width="57px" height="57px" viewBox="0.309 0 57 57" enable-background="new 0.309 0 57 57" xml:space="preserve">
<defs>
</defs>
<path fill="#E52420" d="M28.655,0C13.025,0,0.309,12.716,0.309,28.347c0,15.631,12.716,28.347,28.346,28.347
	c15.63,0,28.347-12.716,28.347-28.347C57.002,12.716,44.285,0,28.655,0z M28.655,53.773c-14.02,0-25.426-11.406-25.426-25.427
	c0-14.02,11.406-25.426,25.426-25.426c14.021,0,25.426,11.406,25.426,25.426C54.081,42.367,42.676,53.773,28.655,53.773z"/>
<path fill="#E52420" d="M43.115,17.739c-0.14,0.14-4.266,4.267-4.266,4.267c-0.201,0.201-0.59,0.305-0.863,0.231l-2.043-0.547
	c-0.273-0.074-0.558-0.357-0.631-0.631l-0.548-2.042c-0.073-0.274,0.031-0.663,0.231-0.863c0,0,4.127-4.127,4.267-4.266
	c0.14-0.141,0.022-0.268-0.261-0.285c0,0-4.254-0.248-6.021,1.519c-1.735,1.736-1.551,5.902-1.551,5.902
	c0.014,0.282-0.141,0.679-0.342,0.879l-1.521,1.521l0.006,0.007c0.33,0.329,0.676,0.863,0.842,1.298
	c0.202,0.526,0.697,1.536,1.161,2c0.382,0.382,1.134,0.784,1.682,1.028l1.842-1.843c0.201-0.201,0.597-0.354,0.88-0.341
	c0,0,4.165,0.185,5.901-1.551C43.648,22.253,43.4,18,43.4,18C43.383,17.717,43.255,17.6,43.115,17.739z"/>
<path fill="#E52420" d="M25.036,30.106c-0.434-0.166-0.968-0.512-1.297-0.84l-0.007-0.008l-9.683,9.683
	c-0.201,0.2-0.2,0.529,0,0.729l3.282,3.282c0.201,0.2,0.528,0.2,0.729,0l10.003-10.004c-0.243-0.547-0.646-1.299-1.028-1.682
	C26.572,30.804,25.563,30.31,25.036,30.106z"/>
<path fill="#E52420" d="M33.962,29.643c-0.2-0.201-0.581-0.448-0.847-0.549c0,0-1.613-0.616-2.451-1.454s-1.454-2.451-1.454-2.451
	c-0.101-0.265-0.348-0.646-0.548-0.847L27.75,23.43c-0.201-0.2-0.529-0.2-0.729,0l-0.681,0.681c-0.201,0.201-0.529,0.201-0.729,0
	l-4.628-4.628c-0.2-0.2-0.448-0.581-0.55-0.846l-0.518-1.342c-0.103-0.265-0.186-0.481-0.186-0.481s-0.194-0.128-0.43-0.285
	l-3.31-2.187c-0.237-0.156-0.431-0.284-0.431-0.284s-0.164,0.164-0.365,0.365l-0.462,0.462c-0.201,0.2-0.365,0.365-0.365,0.365
	s0.131,0.191,0.292,0.425l2.236,3.255c0.161,0.234,0.292,0.426,0.292,0.426s0.213,0.09,0.475,0.202l1.292,0.55
	c0.261,0.111,0.638,0.367,0.839,0.566l4.627,4.628c0.201,0.201,0.201,0.529,0,0.729l-0.68,0.68c-0.201,0.201-0.201,0.529,0,0.729
	l0.912,0.913c0.201,0.201,0.582,0.447,0.847,0.549c0,0,1.613,0.615,2.451,1.454c0.838,0.838,1.454,2.45,1.454,2.45
	c0.101,0.266,0.348,0.646,0.549,0.848l8.831,8.831c0.2,0.2,0.528,0.2,0.729,0l3.281-3.282c0.201-0.201,0.201-0.529,0-0.729
	L33.962,29.643z"/>
<path display="none" fill="#E30613" d="M35.898,29.757l-3.874,3.899l-2.719-4.689l-2.501,4.566l-2.483-4.516l-2.682,1.078
	l-0.013-0.035L19.415,43.92c2.176,1.589,4.747,2.699,7.585,3.151c2.836,0.453,5.626,0.197,8.188-0.635l2.382-14.933l-0.266,0.192
	L35.898,29.757z"/>
<path display="none" fill="#E30613" d="M24.509,25.661l2.06,1.802l0.771-5.023l5.088,4.252l2.167-4.686l2.632,1.78l-2.482-12.851
	c-2.588-0.748-5.385-0.912-8.206-0.367c-2.82,0.545-5.354,1.739-7.477,3.397L21.791,28.1L24.509,25.661z"/>
<path display="none" fill="#E30613" d="M27.883,0.451c15.628-0.255,28.551,12.251,28.806,27.88
	c0.256,15.629-12.251,28.551-27.879,28.806C13.182,57.393,0.259,44.887,0.004,29.257C-0.252,13.629,12.255,0.707,27.883,0.451z
	 M28.763,54.217c14.019-0.229,25.236-11.82,25.007-25.838C53.54,14.361,41.949,3.143,27.931,3.372
	C13.913,3.601,2.694,15.192,2.924,29.21C3.153,43.229,14.745,54.446,28.763,54.217z"/>
</svg>
