<?xml version="1.0" encoding="utf-8"?>
<!-- Generator: Adobe Illustrator 15.0.0, SVG Export Plug-In . SVG Version: 6.00 Build 0)  -->
<!DOCTYPE svg PUBLIC "-//W3C//DTD SVG 1.1//EN" "http://www.w3.org/Graphics/SVG/1.1/DTD/svg11.dtd">
<svg version="1.1" id="Ebene_1" xmlns="http://www.w3.org/2000/svg" xmlns:xlink="http://www.w3.org/1999/xlink" x="0px" y="0px"
	 width="57px" height="57px" viewBox="0 0 57 57" enable-background="new 0 0 57 57" xml:space="preserve">
<path fill="#FFFFFF" d="M28.655,0C13.025,0,0.309,12.716,0.309,28.347s12.716,28.346,28.346,28.346
	c15.63,0,28.347-12.715,28.347-28.346S44.285,0,28.655,0z M28.655,53.773c-14.02,0-25.426-11.406-25.426-25.427
	c0-14.02,11.406-25.426,25.426-25.426c14.021,0,25.426,11.406,25.426,25.426C54.081,42.367,42.676,53.773,28.655,53.773z"/>
<path fill="#FFFFFF" d="M43.115,17.739c-0.141,0.14-4.266,4.267-4.266,4.267c-0.201,0.201-0.591,0.305-0.863,0.231l-2.043-0.547
	c-0.273-0.074-0.559-0.357-0.631-0.631l-0.549-2.042c-0.072-0.274,0.031-0.663,0.231-0.863c0,0,4.127-4.127,4.267-4.266
	c0.141-0.141,0.022-0.268-0.261-0.285c0,0-4.254-0.248-6.021,1.519c-1.735,1.736-1.551,5.902-1.551,5.902
	c0.014,0.282-0.142,0.679-0.343,0.879l-1.521,1.521l0.006,0.007c0.33,0.329,0.676,0.863,0.842,1.298
	c0.202,0.526,0.697,1.536,1.161,2c0.382,0.382,1.134,0.784,1.682,1.028l1.843-1.843c0.2-0.201,0.596-0.354,0.879-0.341
	c0,0,4.166,0.185,5.901-1.551C43.648,22.253,43.4,18,43.4,18C43.383,17.717,43.255,17.6,43.115,17.739z"/>
<path fill="#FFFFFF" d="M25.036,30.105c-0.434-0.166-0.968-0.512-1.297-0.84l-0.007-0.008l-9.683,9.684
	c-0.201,0.199-0.2,0.528,0,0.729l3.282,3.282c0.201,0.2,0.528,0.2,0.729,0l10.003-10.004c-0.243-0.548-0.646-1.3-1.028-1.683
	C26.572,30.805,25.563,30.311,25.036,30.105z"/>
<path fill="#FFFFFF" d="M33.962,29.643c-0.2-0.201-0.581-0.447-0.847-0.549c0,0-1.613-0.616-2.451-1.454
	c-0.838-0.838-1.454-2.451-1.454-2.451c-0.101-0.265-0.348-0.646-0.548-0.847L27.75,23.43c-0.201-0.2-0.529-0.2-0.729,0
	l-0.681,0.681c-0.201,0.201-0.529,0.201-0.729,0l-4.628-4.628c-0.2-0.2-0.448-0.581-0.55-0.846l-0.518-1.342
	c-0.103-0.265-0.186-0.481-0.186-0.481s-0.194-0.128-0.43-0.285l-3.31-2.187c-0.237-0.156-0.431-0.284-0.431-0.284
	s-0.164,0.164-0.365,0.365l-0.462,0.462c-0.201,0.2-0.365,0.365-0.365,0.365s0.131,0.191,0.292,0.425l2.236,3.255
	c0.161,0.234,0.292,0.426,0.292,0.426s0.213,0.09,0.475,0.202l1.292,0.55c0.261,0.111,0.638,0.367,0.839,0.566l4.627,4.628
	c0.201,0.201,0.201,0.529,0,0.729l-0.68,0.68c-0.201,0.201-0.201,0.529,0,0.729l0.912,0.913c0.201,0.201,0.582,0.447,0.847,0.549
	c0,0,1.613,0.616,2.451,1.454c0.838,0.838,1.453,2.451,1.453,2.451c0.102,0.266,0.349,0.646,0.55,0.848l8.831,8.83
	c0.199,0.201,0.527,0.201,0.729,0l3.281-3.281c0.201-0.201,0.201-0.529,0-0.729L33.962,29.643z"/>
<path display="none" fill="#E30613" d="M35.898,29.757l-3.875,3.899l-2.719-4.689l-2.5,4.566l-2.483-4.516l-2.682,1.077
	l-0.013-0.034L19.415,43.92c2.176,1.589,4.747,2.699,7.585,3.15c2.836,0.453,5.626,0.197,8.188-0.635l2.383-14.933l-0.266,0.192
	L35.898,29.757z"/>
<path display="none" fill="#E30613" d="M24.509,25.661l2.06,1.802l0.771-5.023l5.088,4.252l2.168-4.686l2.631,1.78l-2.481-12.851
	c-2.588-0.748-5.386-0.912-8.206-0.367c-2.82,0.545-5.354,1.739-7.477,3.397L21.791,28.1L24.509,25.661z"/>
<path display="none" fill="#E30613" d="M27.883,0.451c15.629-0.255,28.551,12.251,28.807,27.88S44.438,56.882,28.81,57.137
	c-15.628,0.256-28.551-12.25-28.806-27.88C-0.252,13.629,12.255,0.707,27.883,0.451z M28.763,54.217
	c14.019-0.229,25.236-11.82,25.006-25.838C53.54,14.361,41.949,3.143,27.931,3.372S2.694,15.192,2.924,29.21
	C3.153,43.229,14.745,54.445,28.763,54.217z"/>
</svg>
